<?xml version="1.0" encoding="utf-8"?>
<!-- Generator: Adobe Illustrator 16.0.0, SVG Export Plug-In . SVG Version: 6.00 Build 0)  -->
<!DOCTYPE svg PUBLIC "-//W3C//DTD SVG 1.0//EN" "http://www.w3.org/TR/2001/REC-SVG-20010904/DTD/svg10.dtd">
<svg version="1.0" id="Layer_1" xmlns="http://www.w3.org/2000/svg" xmlns:xlink="http://www.w3.org/1999/xlink" x="0px" y="0px"
	 width="717.917px" height="143.507px" viewBox="0 0 717.917 143.507" enable-background="new 0 0 717.917 143.507"
	 xml:space="preserve">
<g>
	<path fill="none" d="M266.93,23.739l-1.19-1.135c0.264,0.362,0.514,0.763,0.774,1.135H266.93z"/>
	<path fill="none" d="M230.274,23.749c0.032-0.013,0.065-0.024,0.098-0.037c-0.295-0.255-0.59-0.504-0.886-0.747l-0.008,0.785
		L230.274,23.749z"/>
	<polygon fill="none" points="556.27,15.137 555.974,14.564 555.743,15.137 	"/>
	<path fill="#FFFFFF" d="M160.041,75.98c0.656,0.662,1.537,1.029,2.48,1.029c1.794,0,4.439-1.305,6.183-3.016v-7.391
		c-6.01,0.746-9.692,3.324-9.692,6.855C159.011,74.416,159.376,75.31,160.041,75.98z"/>
	<path fill="#FFFFFF" d="M101.177,35.007c0-6.284-0.123-6.517-0.806-7.798c-0.728-1.307-2.223-2.033-4.199-2.033
		c-3.437,0-6.521,0.819-6.521,10.717v40.609c0,9.514,0.986,11.15,5.585,14.602l5.941,4.453V35.007z"/>
	<path fill="#FFFFFF" d="M62.669,35.893c0-3.53-0.165-8.394-1.6-9.827c-0.607-0.606-1.81-0.89-3.786-0.89
		c-2.438,0-6.518,0-6.518,11.476v39.85c0,9.135,0.727,11.043,5.554,14.584l6.35,4.648V35.893z"/>
	<path fill="#FFFFFF" d="M229.564,96.32l1.896,1.246c3.412,2.229,5.465,3.146,9.424,2.926c10.29-0.525,14.799-9.047,19.16-17.287
		c0.552-1.039,1.095-2.066,1.645-3.066l-10.921-30.637c-0.794-2.481-1.685-4.759-2.613-6.945V50.1l-3.956-2.266
		c-2.795-1.609-3.458-1.819-5.322-2.301c-2.779-0.717-8.311,1.294-9.816,3.143c-2.141,2.453-2.721,4.796-2.721,10.914l0.144,20.227
		c0,8.086,1.041,9.117,5.02,11.799l6.989,4.705H229.564z"/>
	<path fill="#FFFFFF" d="M325.071,42.066h2.543c5.342,0,9.679-1.068,11.318-2.789c1.318-1.383,1.958-3.416,1.958-6.211
		c0-2.896-0.613-4.895-1.874-6.115c-2.844-2.772-5.395-2.885-11.402-2.885h-2.543V42.066z"/>
	<path fill="#FFFFFF" d="M342.898,73.119c0-3.213-0.734-5.543-2.243-7.127c-1.695-1.781-6.079-2.932-11.172-2.932h-4.412v20.266
		h4.412c5.077,0,9.449-1.148,11.139-2.924C342.154,78.796,342.898,76.414,342.898,73.119z"/>
	<path fill="#FFFFFF" d="M446.808,61.646c2.733,2.744,6.383,4.254,10.278,4.254c8.001,0,14.508-6.484,14.508-14.456
		c0-3.85-1.502-7.47-4.23-10.197c-2.745-2.744-6.396-4.258-10.277-4.258c-3.888,0-7.538,1.514-10.278,4.258
		c-2.728,2.725-4.23,6.345-4.23,10.197C442.578,55.3,444.081,58.921,446.808,61.646z"/>
	<path fill="#FFFFFF" d="M399.71,41.75c0.934-0.937,1.427-2.281,1.427-3.891s-0.494-2.957-1.427-3.891
		c-1.175-1.174-3.069-1.795-5.477-1.795h-2.23v11.364h2.23C396.641,43.538,398.536,42.92,399.71,41.75z"/>
	<path fill="#00B5DF" d="M395.825,85.441c-4.081-3.432-5.153-8.809-5.205-9.072l-0.311-16.367l1.622,3.617
		c10.845,24.168,37.001,26.15,47.549,25.816c-14.118-6.33-29.81-32.459-30.54-33.686l-0.504-0.844l0.924-0.332
		c12.213-4.407,11.649-17.534,11.619-18.091c-0.314-18.547-17.311-18.93-18.034-18.938h-34.438c2.892,3.301,3.181,7.82,3.192,8.04
		l0.002,52.017c-0.291,3.85-1.63,6.402-2.669,7.84H395.825z M390.381,30.555h3.853c2.846,0,5.138,0.784,6.622,2.267
		c1.246,1.249,1.902,2.989,1.902,5.038s-0.656,3.789-1.9,5.038h-0.002c-1.484,1.479-3.774,2.26-6.622,2.26h-3.853V30.555z"/>
	<path fill="#121718" d="M400.856,42.897h0.002c1.244-1.249,1.9-2.989,1.9-5.038s-0.656-3.789-1.902-5.038
		c-1.484-1.482-3.776-2.267-6.622-2.267h-3.853v14.603h3.853C397.082,45.157,399.372,44.376,400.856,42.897z M392.003,32.174h2.23
		c2.407,0,4.302,0.621,5.477,1.795c0.933,0.934,1.427,2.281,1.427,3.891s-0.493,2.954-1.427,3.891
		c-1.175,1.17-3.069,1.788-5.477,1.788h-2.23V32.174z"/>
	<polygon fill="#FFFFFF" points="716.256,15.825 714.752,20.006 713.26,15.825 711.59,15.825 711.59,21.667 712.661,21.667 
		712.661,16.955 714.292,21.667 715.229,21.667 716.844,16.955 716.844,21.667 717.917,21.667 717.917,15.825 	"/>
	<polygon fill="#FFFFFF" points="707.531,21.667 708.692,21.667 708.692,16.801 710.601,16.801 710.601,15.825 705.619,15.825 
		705.619,16.801 707.531,16.801 	"/>
	<path fill="#FFFFFF" d="M712.052,120.078l-6.24-2.918l3.382-12.318l-11.217,2.365l-0.494-1.727
		c-1.672-10.203,2.58-18.096,5.191-21.789l1.367-1.715c0.063-0.076,0.122-0.154,0.184-0.23l0.288-0.361l0,0l0,0l0,0h-0.022
		c3.463-4.469,5.297-9.988,5.297-16.16c0-4.531-1.01-8.598-3.018-12.186l-2.828-42.565l-8.693,2.488
		c-1.463,0.414-2.238,0.484-4.643,0.096l-3.457-0.51c-3.625-0.545-5.941-0.746-8.552-0.746c-5.419,0-10.312,0.964-14.5,2.815
		c-0.116-0.423-0.204-0.849-0.373-1.27c-0.187-0.472-1.22-2.913-3.173-4.688l-3.185-2.893l-6.603,5.919h-39.2l-0.004-0.008h-57.072
		l0.005,0.01h-38.198l0.009,0.019h-45.652l2.281,2.373c-4.844-1.999-10.079-3.049-15.476-3.049
		c-12.651,0-23.955,5.834-31.378,14.938h-1.526c-4.469-10.734-15.251-13.995-21.599-14.046h-38.107
		c-0.511-0.655-1.055-1.29-1.636-1.899c-5.838-6.125-15.068-9.359-26.694-9.359h-51.989l6.366,12.015
		c1.408,2.637,2.814,5.366,3.354,8.512h-29.566c-9.344-12.184-20.868-18.621-34.457-19.197c-12.223-1.533-21.811,2.071-22.215,2.228
		l-16.254,6.253l17.159,2.982c4.86,0.845,11.55,2.908,18.224,7.702h-49.055l0.14,0.095c-3.635-1.027-7.623-1.589-11.862-1.589
		c-2.746,0-5.129,0.121-9.849,0.762c-3.962,0.538-5.959,0.765-8.075,0.765c-3.33,0-3.986-0.396-4.291-0.58l-9.963-6.036v9.202
		h-2.644c-0.52-4.983-1.655-8.791-4.017-12.727C123.262,4.131,114.726,0,104.689,0C97.141,0,90.94,1.83,85.087,5.864
		C80.262,1.926,74.117,0,66.438,0c-4.583,0-8.614,0.74-12.394,2.33V1.651H0.011L15.91,13.64c3.617,2.734,4.081,3.085,4.081,11.577
		v51.285c0,8.494-0.465,8.848-4.074,11.582L0,100.072h146.451c2.868,1.023,5.965,1.584,9.205,1.584
		c4.076,0,7.934-0.838,11.538-2.506l0.12,0.977h49.404l-0.021-0.016h6.469l3.538,34.602l9.982-11.166
		c0.079-0.033,0.565-0.199,2.409-0.316l2.848-0.227c22.591-1.604,31.781-8.33,40.915-29.854l11.652-25.271v17.346
		c0,4.166-1.834,7.654-3.617,11.045l-6.284,12.078l54.207-0.047c4.897,0,13.146-0.834,20.505-5.248
		c-1.695,3.604-2.664,7.594-2.664,11.807c0,15.797,13.228,28.648,29.486,28.648c6.377,0,12.213-1.895,16.95-5.201h4.532
		c1.041,2.629,3.596,4.5,6.592,4.5h9.979c2.994,0,5.549-1.871,6.59-4.5h3.766c1.041,2.629,3.596,4.5,6.591,4.5h9.979
		c1.415,0,2.729-0.428,3.836-1.145c1.109,0.717,2.424,1.145,3.84,1.145h9.978c2.995,0,5.55-1.871,6.591-4.5h6.575
		c4.789,3.266,10.606,5.201,16.89,5.201c6.377,0,12.213-1.895,16.951-5.201h4.533c1.043,2.629,3.597,4.5,6.592,4.5h10.041
		c2.994,0,5.548-1.871,6.59-4.5h3.849c0.958,1.373,3.288,4.5,7.659,4.5h11.189c1.254,0,2.454-0.328,3.496-0.916
		c1.018,0.564,2.169,0.912,3.411,0.912h29.422c1.415,0,2.729-0.426,3.837-1.145c1.109,0.719,2.422,1.145,3.838,1.145h10.042
		c2.995,0,5.55-1.869,6.592-4.496h4.459l0.344,0.518c1.869,2.715,4.345,3.979,7.79,3.979h0.836v0.002h57.985l-1.834-5.875h-0.05
		l-1.008-3.305L712.052,120.078z M603.969,101.939c0,0.895-0.768,1.6-1.6,1.6h-17.65v5.883h14.325c0.832,0,1.599,0.701,1.599,1.596
		v7.807c0,0.893-0.767,1.598-1.599,1.598h-14.325v5.885h17.844c0.894,0,1.599,0.701,1.599,1.596v7.805c0,0.895-0.705,1.6-1.599,1.6
		h-29.419c-0.894,0-1.599-0.705-1.599-1.6v-41.57c0-0.896,0.705-1.6,1.599-1.6h29.226c0.832,0,1.6,0.703,1.6,1.6V101.939z
		 M551.782,135.001c-0.639-0.959-5.88-8.824-9.655-14.58h-3.58v15.285c0,0.895-0.771,1.6-1.603,1.6h-10.037
		c-0.832,0-1.6-0.705-1.6-1.6v-41.57c0-0.898,0.768-1.6,1.6-1.6h10.037c0.832,0,1.603,0.701,1.603,1.6v15.285h3.391
		c3.322-6.459,7.545-14.773,7.8-15.285c0.639-1.152,1.279-1.6,2.431-1.6h11.447c1.856,0,2.239,0.771,1.534,2.047
		c-0.447,0.896-7.865,15.732-10.678,20.848c2.621,3.9,12.276,18.484,12.916,19.633c0.771,1.283-0.063,2.242-1.152,2.242h-11.189
		C553.702,137.306,552.807,136.474,551.782,135.001z M468.772,137.308h-9.979c-0.895,0-1.596-0.705-1.596-1.604V94.138
		c0-0.898,0.701-1.6,1.596-1.6h9.979c0.894,0,1.599,0.701,1.599,1.6v41.566C470.371,136.603,469.666,137.308,468.772,137.308z
		 M439.545,135.705v-15.281h-13.752v15.281c0,0.898-0.705,1.604-1.599,1.604h-9.976c-0.895,0-1.6-0.705-1.6-1.604V94.138
		c0-0.898,0.705-1.6,1.6-1.6h9.976c0.894,0,1.599,0.768,1.599,1.6v15.285h13.752V94.138c0-0.898,0.701-1.6,1.596-1.6h9.979
		c0.895,0,1.6,0.768,1.6,1.6v41.566c0,0.898-0.705,1.604-1.6,1.604h-9.979C440.247,137.308,439.545,136.603,439.545,135.705z
		 M474.85,114.859c0-12.793,10.932-23.088,23.979-23.088c11.064,0,19.954,6.65,22.513,16.818c0.189,0.832,0,1.664-0.96,1.664
		h-10.105c-0.764,0-1.215-0.449-1.342-0.832c-1.791-4.35-5.247-6.396-10.105-6.396c-6.396,0-11.001,5.184-11.001,11.834
		s4.604,11.828,11.001,11.828c4.927,0,8.441-2.111,10.168-6.588c0.192-0.57,0.705-0.895,1.41-0.895h9.975
		c0.895,0,1.215,0.895,1.021,1.727c-2.492,10.299-11.382,17.076-22.574,17.076C485.782,138.007,474.85,127.646,474.85,114.859z
		 M686.553,16.505l3.472,0.51c2.846,0.462,4.296,0.373,6.322-0.207l3.93-1.122l1.935,29.105l-5.861-4.729
		c-5.264-4.258-8.833-5.694-14.141-5.694c-2.508,0-4.563,0.563-5.498,1.5c-0.39,0.393-0.57,0.839-0.57,1.409
		c0,0.614,0,1.313,5.761,3.61l6.574,2.581c11.647,4.646,17.31,11.766,17.31,21.756c0,6.23-2.144,11.666-6.197,15.717
		c-4.744,4.742-11.662,7.248-20.007,7.248c-2.224,0-4.642-0.18-7.838-0.58l-6.852-1.023c-2.249-0.383-3.848-0.438-5.339,0.086
		l-4.018,1.412l-2.73-32.732l6.353,6.311c5.394,5.357,11.037,7.963,17.253,7.963c2.438,0,4.454-0.611,5.674-1.717
		c0.64-0.58,0.949-1.195,0.949-1.891c0-1.111-0.448-2.389-5.796-4.709l-6.909-2.885c-12.035-5.08-16.942-11.15-16.942-20.95
		c0-6.259,2.242-11.6,6.482-15.449c4.491-4.073,10.967-6.221,18.729-6.221C681.019,15.804,683.1,15.985,686.553,16.505z
		 M657.859,11.623c1.352,1.227,2.114,3.123,2.146,3.202c0.731,1.829,0.691,3.64-0.121,5.536c-0.048,0.111-1.235,2.864-4.013,4.174
		l-0.662,0.313l-1.465-2.435l0.686-0.421c1.869-1.144,1.813-3.648,1.812-3.674c-0.003-0.083-0.108-2.056-1.895-3.181l-0.919-0.577
		l3.896-3.426L657.859,11.623z M556.27,15.137h-0.527l0.231-0.572L556.27,15.137z M513.764,15.708l-2.638,4.869
		c-0.379,0.694-0.507,1.281-0.507,2.32c0,1.026,0,1.067,0.845,4.063l5.121,23.171l7.714-24.545c0.553-2.109,0.838-3.343,0.838-4.133
		c0-0.577-0.091-0.81-0.202-1.032l-2.275-4.732h28.544l-1.829,4.527c-0.096,0.236-0.137,0.453-0.137,0.701
		c0.034,0.291,0.435,1.744,0.649,2.524l0.072,0.265c0.178,0.631,0.344,1.229,0.467,1.711l7.979,24.797l4.834-23.289
		c0.783-3.031,0.843-3.382,0.843-4.162c0-0.8-0.182-1.549-0.558-2.282l-2.475-4.802h48.19l19.823,34.599V31.218
		c0-5.427-0.575-7.804-2.367-9.78l-5.004-5.513h33.395l-5.108,5.532c-1.812,1.969-2.394,4.344-2.394,9.761v40.379
		c0,5.414,0.582,7.789,2.396,9.766l5.108,5.525h-28.51L606.56,51.716v19.881c0,5.434,0.573,7.811,2.364,9.781l5.002,5.51h-33.389
		l5.098-5.535c1.812-1.951,2.392-4.322,2.392-9.756V30.97c0-3.809-0.298-6.103-1.062-7.779c-1.211,1.992-2.238,4.904-3.906,10.163
		l-13.148,53.535h-23.218l-9.599-32.012l-9.729,32.012h-23.027l-13.813-55.462c-1.563-5.084-3-7.938-5.111-10.138l-5.365-5.58
		H513.764z M457.457,15.032c9.75,0,18.92,3.792,25.821,10.683c6.859,6.867,10.637,15.988,10.637,25.676
		c0,9.685-3.777,18.802-10.637,25.669c-6.895,6.889-16.064,10.682-25.821,10.682s-18.92-3.793-25.805-10.682
		c-6.861-6.852-10.642-15.967-10.642-25.669C421.01,31.342,437.361,15.032,457.457,15.032z M11.331,96.283l6.868-5.172
		c4.667-3.537,5.583-5.064,5.583-14.609V25.217c0-9.547-0.915-11.07-5.585-14.602L11.332,5.44h38.922v3.337
		c4.915-3.48,9.866-4.988,16.184-4.988c8.074,0,13.947,2.234,18.386,7.015c5.936-4.845,12.104-7.015,19.865-7.015
		c8.711,0,16.041,3.458,19.606,9.248c3.029,5.049,3.858,9.631,3.858,21.333v42.131c0,9.516,0.986,11.15,5.586,14.602l6.912,5.18
		H11.331z M291.214,104.32l3.229-6.201c1.907-3.631,4.068-7.74,4.068-12.895V50.146l-19.098,41.416
		c-8.578,20.215-16.693,26.168-37.742,27.658l-2.878,0.23c-3.478,0.227-4.093,0.727-4.809,1.523l-4.382,4.859l-3.018-29.514h-21.193
		l0.021,0.018h-34.748l-0.3-2.441c-0.048-0.344-0.091-0.666-0.131-0.969c-4.402,3.32-9.19,4.939-14.58,4.939
		c-6.134,0-11.699-2.205-15.663-6.211c-3.853-3.883-5.974-9.262-5.974-15.141c0-11.816,7.965-21.703,20.791-25.8
		c3.824-1.214,8.1-1.829,13.743-1.973c-0.234-1.236-0.738-2.253-1.506-3.021c-1.447-1.459-3.938-2.23-7.205-2.23
		c-6.055,0-12.52,2.429-17.295,6.498l-4.573,3.904V21.301l4.21,2.549c1.154,0.698,2.604,1.129,6.254,1.129
		c2.322,0,4.524-0.246,8.585-0.797c4.533-0.618,6.702-0.729,9.339-0.729c8.427,0,15.761,2.275,20.654,6.408
		c5.068,4.563,6.688,9.475,6.688,20.227v27.833c0,8.377,0.856,10.109,4.605,13.031c3.248-2.295,4.08-3.74,4.08-11.127V41.444
		c0-8.081-0.961-9.038-5.03-11.798l-6.932-4.7h35.251l-0.058,6.077c3.118-2.8,7.192-4.635,12.015-5.478
		c-9.563-10.764-20.735-14.551-28.071-15.826l-3.647-0.634l3.455-1.329c0.369-0.14,9.2-3.483,20.582-1.976
		c19.635,0.732,34.793,15.207,44.957,43.009c0.012,0.025,0.207,0.5,0.457,1.153c1.395-3.999,2.469-7.285,2.646-7.826l0.292-0.829
		c2.066-5.813,2.172-6.227,2.172-7.646c0-1.646-0.452-2.66-1.728-3.871l-5.027-4.793h24.789v-1.246c0-5.29-2.172-9.354-4.089-12.941
		l-3.246-6.125h45.34c10.504,0,18.732,2.808,23.798,8.116c4.031,4.223,6.063,9.863,5.876,16.316
		c-0.346,11.753-5.177,18.133-9.582,21.518c5.244,2.97,12.809,9.786,13.029,24.407c0.025,1.693-0.332,4.813-0.792,7.502
		c0.573-1.256,1.079-2.908,1.237-4.984l-0.003-51.912c-0.001-0.01-0.366-5.484-4.125-8.241l-1.999-1.463h38.998
		c0.198,0,19.307,0.386,19.646,20.501c0.006,0.111,0.642,14.165-11.766,19.314c3.146,5.08,20.399,31.998,33.378,33.393l6.542,0.703
		l-6.517,0.904c-0.097,0.014-2.545,0.332-6.39,0.332c-11.226,0-34.371-2.699-45.779-23.533l0.159,8.66
		c0.013,0,1.386,6.695,6.652,9.326l3.078,1.535h-34.226c-1.237,3.33-3.058,6.262-5.457,8.697c-7.316,7.432-17.84,8.539-23.462,8.539
		L291.214,104.32z M362.162,114.859c0-12.793,10.932-23.088,23.981-23.088c11.063,0,19.952,6.65,22.514,16.818
		c0.189,0.832,0,1.664-0.963,1.664h-10.103c-0.767,0-1.214-0.449-1.345-0.832c-1.791-4.35-5.244-6.396-10.104-6.396
		c-6.396,0-11,5.184-11,11.834s4.604,11.828,11,11.828c4.925,0,8.439-2.111,10.166-6.588c0.195-0.57,0.704-0.895,1.409-0.895h9.976
		c0.895,0,1.217,0.895,1.021,1.727c-2.493,10.299-11.383,17.076-22.572,17.076C373.093,138.007,362.162,127.646,362.162,114.859z
		 M639.464,137.306c-1.856,0-2.562-0.578-3.263-1.6l-14.326-21.553v21.553c0,0.895-0.768,1.6-1.6,1.6h-10.041
		c-0.894,0-1.599-0.705-1.599-1.6v-41.57c0-0.898,0.767-1.6,1.599-1.6h0.451h6.904c1.537,0,2.238,0.514,3.584,2.301
		c1.341,1.791,13.813,20.467,13.813,20.467V94.136c0-0.898,0.702-1.6,1.596-1.6h9.979c0.894,0,1.596,0.701,1.596,1.6v41.57
		c0,0.895-0.702,1.6-1.596,1.6H639.464z M692.609,136.929c-4.079-0.465-10.22-1.217-14.73-1.762
		c-4.51,0.545-10.651,1.297-14.733,1.762l1.08-3.533c0.189-0.658-0.075-1.383-0.594-1.789l-13.151-10.693l2.726-1.275
		c1.193-0.428,0.861-1.104,0.434-2.729l-2.004-7.293l7.643,1.609c0.744,0.111,1.243-0.359,1.357-0.813l0.979-3.438l6.044,6.77
		c0.857,1.082,2.597,1.086,2.059-1.418l-2.574-13.701l3.459,1.791c0.972,0.541,1.944,0.633,2.489-0.332l4.787-8.926l4.791,8.926
		c0.545,0.965,1.514,0.873,2.483,0.332l3.465-1.791l-2.574,13.701c-0.542,2.504,1.201,2.5,2.059,1.418l6.037-6.77l0.982,3.438
		c0.114,0.453,0.61,0.924,1.357,0.813l7.643-1.609l-2.004,7.293c-0.427,1.625-0.764,2.301,0.435,2.729l2.725,1.275l-13.151,10.693
		c-0.519,0.406-0.779,1.131-0.594,1.789L692.609,136.929z"/>
	<path fill="#E66C27" d="M692.125,131.607l13.151-10.693l-2.725-1.275c-1.198-0.428-0.861-1.104-0.435-2.729l2.004-7.293
		l-7.643,1.609c-0.747,0.111-1.243-0.359-1.357-0.813l-0.982-3.438l-6.037,6.77c-0.857,1.082-2.601,1.086-2.059-1.418l2.574-13.701
		l-3.465,1.791c-0.97,0.541-1.938,0.633-2.483-0.332l-4.791-8.926l-4.787,8.926c-0.545,0.965-1.518,0.873-2.489,0.332l-3.459-1.791
		l2.574,13.701c0.538,2.504-1.201,2.5-2.059,1.418l-6.044-6.77l-0.979,3.438c-0.114,0.453-0.613,0.924-1.357,0.813l-7.643-1.609
		l2.004,7.293c0.428,1.625,0.76,2.301-0.434,2.729l-2.726,1.275l13.151,10.693c0.519,0.406,0.783,1.131,0.594,1.789l-1.08,3.533
		c4.082-0.465,10.224-1.217,14.733-1.762c4.511,0.545,10.651,1.297,14.73,1.762l-1.077-3.533
		C691.346,132.738,691.607,132.013,692.125,131.607z"/>
	<path fill="#00B5DF" d="M656.052,14.411c1.718,1.603,1.809,3.751,1.812,3.853c0.004,0.102,0.061,2.043-1.084,3.69
		c1.094-1.046,1.605-2.212,1.613-2.23c0.645-1.501,0.679-2.868,0.105-4.296c-0.006-0.016-0.463-1.145-1.235-2.081L656.052,14.411z"
		/>
	<path fill="#121718" d="M653.428,14.561l0.919,0.577c1.786,1.125,1.892,3.098,1.895,3.181c0.002,0.025,0.058,2.53-1.812,3.674
		l-0.686,0.421l1.465,2.435l0.662-0.313c2.777-1.31,3.965-4.063,4.013-4.174c0.813-1.896,0.853-3.707,0.121-5.536
		c-0.032-0.079-0.795-1.976-2.146-3.202l-0.535-0.488L653.428,14.561z M658.499,15.428c0.573,1.428,0.539,2.795-0.105,4.296
		c-0.008,0.019-0.52,1.185-1.613,2.23c1.145-1.647,1.088-3.589,1.084-3.69c-0.003-0.102-0.094-2.25-1.812-3.853l1.211-1.064
		C658.036,14.283,658.493,15.412,658.499,15.428z"/>
	<path fill="#00B5DF" d="M483.858,17.327l2.726,2.839c2.304,2.4,3.849,5.434,5.504,10.826l13.52,54.277h20.557l10.94-36.007
		l10.797,36.007h20.738l12.859-52.355c2.056-6.492,3.186-9.539,4.891-11.75l0.68-0.88l0.632,0.918
		c1.438,2.097,1.948,4.652,1.948,9.768v40.627c0,5.918-0.687,8.555-2.823,10.855l-2.591,2.816h26.029l-2.541-2.801
		c-2.108-2.32-2.785-4.963-2.785-10.871V45.584l22.584,39.685h23.859l-2.596-2.807c-2.138-2.334-2.822-4.973-2.822-10.865V31.218
		c0-5.898,0.686-8.537,2.822-10.856v-0.004l2.598-2.813h-26.029l2.543,2.804c2.111,2.33,2.788,4.972,2.788,10.87v25.153
		l-22.386-39.073H563.71l1.255,2.444c0.498,0.969,0.738,1.957,0.738,3.021c0,1-0.094,1.476-0.91,4.621l-6.049,29.181l-9.875-30.699
		c-0.134-0.516-0.297-1.103-0.474-1.727l-0.073-0.268c-0.355-1.291-0.653-2.4-0.703-2.869c-0.004-0.541,0.078-0.968,0.251-1.393
		l0.931-2.304h-23.563l1.155,2.403c0.258,0.522,0.366,1.029,0.366,1.743c0,0.975-0.29,2.253-0.901,4.582l-9.547,30.374
		l-6.419-29.054c-0.86-3.047-0.894-3.215-0.894-4.458c0-1.316,0.19-2.154,0.702-3.095l1.342-2.476H483.858z"/>
	<path fill="#121718" d="M490.526,31.426l13.813,55.462h23.027l9.729-32.012l9.599,32.012h23.218l13.148-53.535
		c1.668-5.259,2.695-8.171,3.906-10.163c0.764,1.677,1.062,3.971,1.062,7.779v40.627c0,5.434-0.58,7.805-2.392,9.756l-5.098,5.535
		h33.389l-5.002-5.51c-1.791-1.971-2.364-4.348-2.364-9.781V51.716l20.019,35.172h28.51l-5.108-5.525
		c-1.813-1.977-2.396-4.352-2.396-9.766V31.218c0-5.417,0.582-7.792,2.394-9.761l5.108-5.532h-33.395l5.004,5.513
		c1.792,1.977,2.367,4.354,2.367,9.78v19.061L609.24,15.68h-48.19l2.475,4.802c0.376,0.733,0.558,1.482,0.558,2.282
		c0,0.78-0.06,1.131-0.843,4.162l-4.834,23.289l-7.979-24.797c-0.123-0.481-0.289-1.08-0.467-1.711l-0.072-0.265
		c-0.215-0.78-0.615-2.233-0.649-2.524c0-0.248,0.041-0.465,0.137-0.701l1.829-4.527H522.66l2.275,4.732
		c0.111,0.223,0.202,0.455,0.202,1.032c0,0.79-0.285,2.023-0.838,4.133l-7.714,24.545l-5.121-23.171
		c-0.845-2.996-0.845-3.037-0.845-4.063c0-1.039,0.128-1.626,0.507-2.32l2.638-4.869h-33.715l5.365,5.58
		C487.526,23.487,488.962,26.342,490.526,31.426z M509.701,19.803c-0.512,0.94-0.702,1.778-0.702,3.095
		c0,1.243,0.033,1.411,0.894,4.458l6.419,29.054l9.547-30.374c0.611-2.329,0.901-3.607,0.901-4.582c0-0.714-0.108-1.221-0.366-1.743
		l-1.155-2.403h23.563l-0.931,2.304c-0.173,0.425-0.255,0.852-0.251,1.393c0.05,0.469,0.348,1.578,0.703,2.869l0.073,0.268
		c0.177,0.624,0.34,1.211,0.474,1.727l9.875,30.699l6.049-29.181c0.816-3.146,0.91-3.621,0.91-4.621c0-1.064-0.24-2.053-0.738-3.021
		l-1.255-2.444h44.589l22.386,39.073V31.218c0-5.898-0.677-8.54-2.788-10.87l-2.543-2.804h26.029l-2.598,2.813v0.004
		c-2.137,2.319-2.822,4.958-2.822,10.856v40.379c0,5.893,0.685,8.531,2.822,10.865l2.596,2.807h-23.859l-22.584-39.685v26.013
		c0,5.908,0.677,8.551,2.785,10.871l2.541,2.801h-26.029l2.591-2.816c2.137-2.301,2.823-4.938,2.823-10.855V30.97
		c0-5.115-0.51-7.671-1.948-9.768l-0.632-0.918l-0.68,0.88c-1.705,2.211-2.835,5.258-4.891,11.75l-12.859,52.355h-20.738
		l-10.797-36.007l-10.94,36.007h-20.557l-13.52-54.277c-1.655-5.393-3.2-8.426-5.504-10.826l-2.726-2.839h27.185L509.701,19.803z"/>
	<path fill="#00B5DF" d="M660.958,23.226c-3.893,3.531-5.949,8.461-5.949,14.248c0,9.038,4.621,14.672,15.948,19.456l6.915,2.887
		c5.012,2.17,6.783,3.793,6.783,6.201c0,1.145-0.512,2.215-1.481,3.092c-1.519,1.377-3.921,2.135-6.763,2.135
		c-6.665,0-12.684-2.756-18.396-8.428l-3.227-3.207l2.188,26.25l2.04-0.717c0.919-0.322,1.797-0.463,2.848-0.463
		c0.969,0,2.072,0.102,3.281,0.303l6.818,1.02c3.109,0.393,5.464,0.568,7.618,0.568c7.905,0,14.427-2.344,18.859-6.775
		c3.743-3.742,5.722-8.779,5.722-14.57c0-9.252-5.328-15.876-16.289-20.251l-6.567-2.578c-5.762-2.298-6.786-3.337-6.786-5.118
		c0-1.001,0.35-1.861,1.043-2.553c1.268-1.274,3.629-1.976,6.646-1.976c5.736,0,9.562,1.526,15.161,6.052l2.976,2.402l-1.555-23.407
		l-1.998,0.574c-2.271,0.65-3.945,0.752-7.018,0.248l-3.462-0.506c-3.367-0.508-5.384-0.688-7.717-0.688
		C671.245,17.423,665.145,19.43,660.958,23.226z"/>
	<path fill="#121718" d="M659.869,22.024c-4.24,3.85-6.482,9.19-6.482,15.449c0,9.8,4.907,15.87,16.942,20.95l6.909,2.885
		c5.348,2.32,5.796,3.598,5.796,4.709c0,0.695-0.31,1.311-0.949,1.891c-1.22,1.105-3.235,1.717-5.674,1.717
		c-6.216,0-11.859-2.605-17.253-7.963l-6.353-6.311l2.73,32.732l4.018-1.412c1.491-0.523,3.09-0.469,5.339-0.086l6.852,1.023
		c3.196,0.4,5.614,0.58,7.838,0.58c8.345,0,15.263-2.506,20.007-7.248c4.054-4.051,6.197-9.486,6.197-15.717
		c0-9.99-5.662-17.11-17.31-21.756l-6.574-2.581c-5.761-2.298-5.761-2.996-5.761-3.61c0-0.57,0.181-1.017,0.57-1.409
		c0.935-0.937,2.99-1.5,5.498-1.5c5.308,0,8.877,1.437,14.141,5.694l5.861,4.729l-1.935-29.105l-3.93,1.122
		c-2.026,0.58-3.477,0.669-6.322,0.207l-3.472-0.51c-3.453-0.52-5.534-0.701-7.956-0.701
		C670.835,15.804,664.36,17.951,659.869,22.024z M686.314,18.111l3.462,0.506c3.072,0.504,4.746,0.402,7.018-0.248l1.998-0.574
		l1.555,23.407l-2.976-2.402c-5.6-4.525-9.425-6.052-15.161-6.052c-3.018,0-5.379,0.701-6.646,1.976
		c-0.693,0.691-1.043,1.552-1.043,2.553c0,1.781,1.024,2.82,6.786,5.118l6.567,2.578c10.961,4.375,16.289,11,16.289,20.251
		c0,5.791-1.979,10.828-5.722,14.57c-4.433,4.432-10.954,6.775-18.859,6.775c-2.154,0-4.509-0.176-7.618-0.568l-6.818-1.02
		c-1.209-0.201-2.313-0.303-3.281-0.303c-1.051,0-1.929,0.141-2.848,0.463l-2.04,0.717l-2.188-26.25l3.227,3.207
		c5.713,5.672,11.731,8.428,18.396,8.428c2.842,0,5.244-0.758,6.763-2.135c0.97-0.877,1.481-1.947,1.481-3.092
		c0-2.408-1.771-4.031-6.783-6.201l-6.915-2.887c-11.327-4.784-15.948-10.417-15.948-19.456c0-5.787,2.057-10.717,5.949-14.248
		c4.188-3.796,10.287-5.803,17.64-5.803C680.93,17.423,682.947,17.604,686.314,18.111z"/>
	<path fill="#00B5DF" d="M361.12,94.619c2.361-2.396,4.145-5.303,5.303-8.637c0.727-2.215,1.631-8.4,1.592-10.934
		c-0.211-14.145-7.348-20.643-13.298-23.601l-1.245-0.617l1.152-0.781c4.342-2.938,9.593-8.965,9.944-20.994
		c0.174-6.011-1.701-11.25-5.427-15.15c-4.752-4.984-12.575-7.619-22.625-7.619h-42.644l1.982,3.744
		c2.004,3.751,4.278,8.008,4.278,13.703v1.246h18.336l-7.818,5.117c-4.017,2.61-5.07,3.876-9.299,13.889l-1.219,2.644v38.596
		c0,5.555-2.26,9.852-4.255,13.643l-1.986,3.82l2.771-0.008h42.151C344.182,102.679,354.219,101.63,361.12,94.619z M344.52,73.119
		c0,3.73-0.891,6.48-2.725,8.402c-2.041,2.145-6.645,3.424-12.313,3.424h-6.033V61.441h6.033c5.684,0,10.3,1.281,12.346,3.434
		C343.639,66.773,344.52,69.468,344.52,73.119z M327.614,22.448c6.149,0,9.25,0.14,12.532,3.34c1.592,1.539,2.366,3.919,2.366,7.278
		c0,3.231-0.787,5.631-2.406,7.33l-0.001,0.003c-1.993,2.087-6.546,3.285-12.491,3.285h-4.164V22.448H327.614z"/>
	<path fill="#121718" d="M367.733,87.06h34.226l-3.078-1.535c-5.267-2.631-6.64-9.326-6.652-9.326l-0.159-8.66
		c11.408,20.834,34.554,23.533,45.779,23.533c3.845,0,6.293-0.318,6.39-0.332l6.517-0.904l-6.542-0.703
		c-12.979-1.395-30.231-28.313-33.378-33.393c12.407-5.149,11.771-19.203,11.766-19.314c-0.34-20.115-19.448-20.501-19.646-20.501
		h-38.998l1.999,1.463c3.759,2.757,4.124,8.231,4.125,8.241l0.003,51.912c-0.158,2.076-0.664,3.729-1.237,4.984
		c0.46-2.689,0.817-5.809,0.792-7.502c-0.221-14.621-7.785-21.437-13.029-24.407c4.405-3.385,9.236-9.765,9.582-21.518
		c0.187-6.453-1.845-12.094-5.876-16.316c-5.065-5.309-13.294-8.116-23.798-8.116h-45.34l3.246,6.125
		c1.917,3.588,4.089,7.651,4.089,12.941v1.246h-24.789l5.027,4.793c1.275,1.211,1.728,2.225,1.728,3.871
		c0,1.419-0.105,1.833-2.172,7.646l-0.292,0.829c-0.178,0.541-1.252,3.827-2.646,7.826c-0.25-0.653-0.445-1.128-0.457-1.153
		c-10.164-27.802-25.322-42.276-44.957-43.009c-11.382-1.508-20.213,1.836-20.582,1.976l-3.455,1.329l3.647,0.634
		c7.336,1.275,18.508,5.063,28.071,15.826c-4.822,0.843-8.896,2.678-12.015,5.478l0.058-6.077h-35.251l6.932,4.7
		c4.069,2.76,5.03,3.717,5.03,11.798v38.379c0,7.387-0.832,8.832-4.08,11.127c-3.749-2.922-4.605-4.654-4.605-13.031V50.087
		c0-10.752-1.619-15.663-6.688-20.227c-4.893-4.133-12.227-6.408-20.654-6.408c-2.637,0-4.806,0.111-9.339,0.729
		c-4.062,0.551-6.264,0.797-8.585,0.797c-3.65,0-5.1-0.431-6.254-1.129l-4.21-2.549v32.591l4.573-3.904
		c4.775-4.069,11.24-6.498,17.295-6.498c3.267,0,5.758,0.771,7.205,2.23c0.768,0.769,1.271,1.785,1.506,3.021
		c-5.644,0.144-9.919,0.759-13.743,1.973c-12.825,4.097-20.791,13.984-20.791,25.8c0,5.879,2.121,11.258,5.974,15.141
		c3.964,4.006,9.529,6.211,15.663,6.211c5.389,0,10.177-1.619,14.58-4.939c0.04,0.303,0.083,0.625,0.131,0.969l0.3,2.441h34.748
		l-0.021-0.018h21.193l3.018,29.514l4.382-4.859c0.716-0.797,1.331-1.297,4.809-1.523l2.878-0.23
		c21.049-1.49,29.164-7.443,37.742-27.658l19.098-41.416v35.078c0,5.154-2.161,9.264-4.068,12.895l-3.229,6.201l47.6-0.023
		c5.622,0,16.146-1.107,23.462-8.539C364.675,93.322,366.496,90.39,367.733,87.06z M293.892,102.687l1.986-3.82
		c1.995-3.791,4.255-8.088,4.255-13.643V46.628l1.219-2.644c4.229-10.013,5.282-11.278,9.299-13.889l7.818-5.117h-18.336v-1.246
		c0-5.695-2.274-9.952-4.278-13.703l-1.982-3.744h42.644c10.05,0,17.873,2.635,22.625,7.619c3.726,3.9,5.601,9.14,5.427,15.15
		c-0.352,12.029-5.603,18.056-9.944,20.994l-1.152,0.781l1.245,0.617c5.95,2.958,13.087,9.457,13.298,23.601
		c0.039,2.533-0.865,8.719-1.592,10.934c-1.158,3.334-2.941,6.24-5.303,8.637c-6.9,7.012-16.938,8.061-22.306,8.061h-42.151
		L293.892,102.687z M232.463,119.607l-1.292,1.434l-2.326-22.744l1.496,0.982c3.654,2.387,6.179,3.488,10.646,3.26
		c11.451-0.586,16.453-10.039,20.865-18.375c0.62-1.17,1.23-2.324,1.849-3.436l0.225-0.404l-11.22-31.48
		c-1.327-4.148-2.873-7.84-4.552-11.208V25.004h-4.228c-1.322,0-2.588,0.085-3.826,0.208c-8.536-10.116-18.503-14.644-26.151-16.633
		c3.56-0.803,9.28-1.616,15.832-0.762c18.817,0.708,33.354,14.729,43.222,41.715c0.01,0.022,0.986,2.388,1.341,3.818l0.813,3.295
		l1.144-3.197c1.861-5.207,3.438-10.025,3.675-10.749c2.333-6.552,2.548-7.212,2.548-9.058c0-2.208-0.686-3.76-2.363-5.354
		l-1.326-1.265h32.772l-2.074,1.357c-4.393,2.855-5.639,4.327-10.051,14.777l-21.938,47.579
		c-8.305,19.563-15.711,25.004-36.024,26.443l-2.872,0.23C235.177,117.634,233.791,118.128,232.463,119.607z M170.369,90.193
		c-4.417,3.785-9.229,5.627-14.713,5.627c-5.584,0-10.631-1.99-14.209-5.605c-3.471-3.496-5.381-8.361-5.381-13.699
		c0-10.893,7.42-20.033,19.365-23.85c3.876-1.229,8.284-1.816,14.288-1.899l1.073-0.016l-0.066-1.07
		c-0.141-2.241-0.889-4.061-2.226-5.402c-1.838-1.854-4.833-2.833-8.657-2.833c-6.526,0-13.488,2.613-18.622,6.989l-1.2,1.022
		V24.934l1.106,0.67c1.456,0.876,3.188,1.421,7.312,1.421c2.439,0,4.706-0.252,8.861-0.815c4.417-0.6,6.517-0.711,9.063-0.711
		c7.945,0,14.81,2.104,19.309,5.904c4.531,4.08,5.986,8.621,5.986,18.685v27.833c0,8.801,1.05,11.139,4.893,14.242l-3.131,2.129
		h-20.943l-0.081-0.66c-0.154-1.117-0.258-1.959-0.341-2.766l-0.202-1.941L170.369,90.193z M204.434,79.824V41.444
		c0-8.54-1.2-10.287-5.929-13.493l-1.416-0.959h26.522l-0.089,9.376l1.829-2.146c5.053-5.927,12.891-7.173,18.575-7.173h2.182
		v19.519l-0.893-0.51c-2.847-1.638-3.697-1.956-5.828-2.508c-3.676-0.934-9.932,1.396-11.893,3.805
		c-2.483,2.85-3.201,5.594-3.201,12.242l0.143,20.227c0,8.383,1.19,10.303,5.923,13.486l1.433,0.965h-34.709l1.422-0.965
		C203.234,90.109,204.434,88.367,204.434,79.824z M231.502,91.615c-3.979-2.682-5.02-3.713-5.02-11.799l-0.144-20.227
		c0-6.118,0.58-8.46,2.721-10.914c1.506-1.849,7.037-3.859,9.816-3.143c1.864,0.481,2.527,0.691,5.322,2.301l3.956,2.266v-7.544
		c0.929,2.187,1.819,4.464,2.613,6.945l10.921,30.637c-0.55,1-1.093,2.027-1.645,3.066c-4.361,8.24-8.87,16.762-19.16,17.287
		c-3.959,0.221-6.012-0.697-9.424-2.926l-1.896-1.246h8.928L231.502,91.615z M371.702,77.601L371.7,25.584
		c-0.012-0.22-0.301-4.739-3.192-8.04h34.438c0.724,0.009,17.72,0.392,18.034,18.938c0.03,0.558,0.594,13.685-11.619,18.091
		l-0.924,0.332l0.504,0.844c0.73,1.227,16.422,27.355,30.54,33.686c-10.548,0.334-36.704-1.648-47.549-25.816l-1.622-3.617
		l0.311,16.367c0.052,0.264,1.124,5.641,5.205,9.072h-26.792C370.072,84.003,371.411,81.451,371.702,77.601z"/>
	<path fill="#121718" d="M323.45,61.441v23.504h6.033c5.668,0,10.271-1.279,12.313-3.424c1.834-1.922,2.725-4.672,2.725-8.402
		c0-3.65-0.881-6.346-2.691-8.244c-2.046-2.152-6.662-3.434-12.346-3.434H323.45z M325.071,83.326V63.06h4.412
		c5.093,0,9.477,1.15,11.172,2.932c1.509,1.584,2.243,3.914,2.243,7.127c0,3.295-0.744,5.678-2.276,7.283
		c-1.689,1.775-6.062,2.924-11.139,2.924H325.071z"/>
	<path fill="#121718" d="M323.45,43.685h4.164c5.945,0,10.498-1.198,12.491-3.285l0.001-0.003c1.619-1.699,2.406-4.099,2.406-7.33
		c0-3.359-0.774-5.739-2.366-7.278c-3.282-3.2-6.383-3.34-12.532-3.34h-4.164V43.685z M327.614,24.066
		c6.008,0,8.559,0.112,11.402,2.885c1.261,1.221,1.874,3.219,1.874,6.115c0,2.795-0.64,4.828-1.958,6.211
		c-1.64,1.721-5.977,2.789-11.318,2.789h-2.543v-18H327.614z"/>
	<path fill="#00B5DF" d="M422.633,51.391c0,9.271,3.61,17.976,10.166,24.523c6.578,6.582,15.334,10.209,24.657,10.209
		s18.087-3.627,24.674-10.209c6.554-6.563,10.163-15.271,10.163-24.523c0-9.258-3.609-17.967-10.163-24.529
		c-6.594-6.584-15.357-10.21-24.674-10.21C438.254,16.651,422.633,32.234,422.633,51.391z M457.086,35.371
		c4.315,0,8.372,1.679,11.425,4.729c3.034,3.034,4.706,7.063,4.706,11.345c0,8.866-7.236,16.075-16.131,16.075
		c-4.328,0-8.387-1.676-11.426-4.727c-3.033-3.031-4.705-7.059-4.705-11.348c0-4.286,1.672-8.313,4.705-11.345
		C448.709,37.05,452.766,35.371,457.086,35.371z"/>
	<path fill="#121718" d="M421.01,51.391c0,9.703,3.78,18.818,10.642,25.669c6.885,6.889,16.048,10.682,25.805,10.682
		s18.927-3.793,25.821-10.682c6.859-6.867,10.637-15.984,10.637-25.669c0-9.688-3.777-18.809-10.637-25.676
		c-6.901-6.891-16.071-10.683-25.821-10.683C437.361,15.032,421.01,31.342,421.01,51.391z M457.457,16.651
		c9.316,0,18.08,3.626,24.674,10.21c6.554,6.563,10.163,15.271,10.163,24.529c0,9.251-3.609,17.96-10.163,24.523
		c-6.587,6.582-15.351,10.209-24.674,10.209s-18.079-3.627-24.657-10.209c-6.556-6.547-10.166-15.252-10.166-24.523
		C422.633,32.234,438.254,16.651,457.457,16.651z"/>
	<path fill="#121718" d="M445.661,62.792c3.039,3.051,7.098,4.727,11.426,4.727c8.895,0,16.131-7.209,16.131-16.075
		c0-4.282-1.672-8.311-4.706-11.345c-3.053-3.05-7.109-4.729-11.425-4.729c-4.32,0-8.377,1.679-11.426,4.729
		c-3.033,3.031-4.705,7.059-4.705,11.345C440.956,55.734,442.627,59.761,445.661,62.792z M457.086,36.989
		c3.882,0,7.532,1.514,10.277,4.258c2.729,2.728,4.23,6.348,4.23,10.197c0,7.971-6.507,14.456-14.508,14.456
		c-3.896,0-7.545-1.51-10.278-4.254c-2.728-2.725-4.23-6.346-4.23-10.202c0-3.853,1.503-7.473,4.23-10.197
		C449.548,38.503,453.199,36.989,457.086,36.989z"/>
	<path fill="#E66C27" d="M172.053,90.865c0.083,0.807,0.187,1.648,0.341,2.766l0.081,0.66h20.943l3.131-2.129
		c-3.843-3.104-4.893-5.441-4.893-14.242V50.087c0-10.063-1.455-14.604-5.986-18.685c-4.499-3.801-11.364-5.904-19.309-5.904
		c-2.546,0-4.646,0.111-9.063,0.711c-4.156,0.563-6.422,0.815-8.861,0.815c-4.124,0-5.855-0.545-7.312-1.421l-1.106-0.67v24.522
		l1.2-1.022c5.134-4.376,12.096-6.989,18.622-6.989c3.824,0,6.818,0.979,8.657,2.833c1.337,1.342,2.085,3.161,2.226,5.402
		l0.066,1.07l-1.073,0.016c-6.004,0.083-10.412,0.67-14.288,1.899c-11.944,3.817-19.365,12.958-19.365,23.85
		c0,5.338,1.911,10.203,5.381,13.699c3.578,3.615,8.625,5.605,14.209,5.605c5.484,0,10.296-1.842,14.713-5.627l1.482-1.27
		L172.053,90.865z M156.965,73.458c0-4.904,4.856-8.355,12.677-9.008l1.107-0.094v10.459l-0.275,0.293
		c-2.139,2.285-5.483,3.945-7.953,3.945c-1.494,0-2.892-0.58-3.936-1.635C157.541,76.365,156.965,74.957,156.965,73.458z"/>
	<path fill="#121718" d="M170.474,75.109l0.275-0.293V64.357l-1.107,0.094c-7.82,0.652-12.677,4.104-12.677,9.008
		c0,1.498,0.575,2.906,1.62,3.961c1.044,1.055,2.441,1.635,3.936,1.635C164.991,79.054,168.335,77.394,170.474,75.109z
		 M168.704,66.603v7.391c-1.743,1.711-4.388,3.016-6.183,3.016c-0.943,0-1.824-0.367-2.48-1.029
		c-0.665-0.67-1.029-1.564-1.029-2.521C159.011,69.927,162.693,67.349,168.704,66.603z"/>
	<path fill="#E66C27" d="M241.519,117.181c20.313-1.439,27.72-6.881,36.024-26.443l21.938-47.579
		c4.412-10.45,5.658-11.922,10.051-14.777l2.074-1.357h-32.772l1.326,1.265c1.678,1.594,2.363,3.146,2.363,5.354
		c0,1.846-0.215,2.506-2.548,9.058c-0.237,0.724-1.813,5.542-3.675,10.749l-1.144,3.197l-0.813-3.295
		c-0.354-1.431-1.331-3.796-1.341-3.818c-9.867-26.985-24.404-41.007-43.222-41.715c-6.552-0.854-12.272-0.041-15.832,0.762
		c7.648,1.989,17.615,6.517,26.151,16.633c1.238-0.123,2.504-0.208,3.826-0.208h4.228v12.632c1.679,3.368,3.225,7.06,4.552,11.208
		l11.22,31.48l-0.225,0.404c-0.618,1.111-1.229,2.266-1.849,3.436c-4.412,8.336-9.414,17.789-20.865,18.375
		c-4.468,0.229-6.992-0.873-10.646-3.26l-1.496-0.982l2.326,22.744l1.292-1.434c1.327-1.479,2.714-1.973,6.184-2.195
		L241.519,117.181z"/>
	<path fill="#E66C27" d="M17.446,94.236H57.16l-2.049-1.5c-5.436-3.986-6.391-6.416-6.391-16.234v-39.85
		c0-9.478,2.561-13.521,8.564-13.521c2.59,0,4.204,0.459,5.233,1.488c1.562,1.562,2.198,4.828,2.198,11.274v58.343h31.288
		l-1.995-1.494c-5.108-3.834-6.403-5.93-6.403-16.24V35.893c0-9.065,2.482-12.763,8.567-12.763c2.752,0,4.881,1.1,5.994,3.101
		c0.907,1.699,1.057,2.167,1.057,8.776v59.229h31.285l-1.995-1.494c-5.108-3.834-6.406-5.928-6.406-16.24V34.37
		c0-11.256-0.765-15.612-3.561-20.271c-3.184-5.169-9.861-8.263-17.857-8.263c-7.675,0-13.45,2.145-19.304,7.166l-0.779,0.666
		l-0.666-0.78c-4.097-4.812-9.657-7.052-17.502-7.052c-6.614,0-11.415,1.676-16.569,5.79l-1.66,1.325V7.486H17.445l1.985,1.498
		c5.185,3.919,6.397,5.889,6.397,16.232v51.285c0,10.346-1.213,12.314-6.396,16.24L17.446,94.236z"/>
	<path fill="#121718" d="M133.74,91.103c-4.6-3.451-5.586-5.086-5.586-14.602V34.37c0-11.702-0.829-16.284-3.858-21.333
		c-3.565-5.79-10.896-9.248-19.606-9.248c-7.761,0-13.929,2.17-19.865,7.015c-4.439-4.78-10.312-7.015-18.386-7.015
		c-6.317,0-11.269,1.508-16.184,4.988V5.44H11.332l6.865,5.175c4.67,3.531,5.585,5.055,5.585,14.602v51.285
		c0,9.545-0.917,11.072-5.583,14.609l-6.868,5.172h129.321L133.74,91.103z M25.828,76.501V25.217
		c0-10.344-1.213-12.313-6.397-16.232l-1.985-1.498h30.764v5.465l1.66-1.325c5.154-4.114,9.955-5.79,16.569-5.79
		c7.845,0,13.405,2.24,17.502,7.052l0.666,0.78l0.779-0.666c5.854-5.021,11.628-7.166,19.304-7.166
		c7.996,0,14.674,3.094,17.857,8.263c2.796,4.659,3.561,9.016,3.561,20.271v42.131c0,10.313,1.297,12.406,6.406,16.24l1.995,1.494
		h-31.285V35.007c0-6.609-0.15-7.077-1.057-8.776c-1.113-2.001-3.242-3.101-5.994-3.101c-6.085,0-8.567,3.697-8.567,12.763v40.609
		c0,10.311,1.295,12.406,6.403,16.24l1.995,1.494H64.715V35.893c0-6.446-0.637-9.713-2.198-11.274
		c-1.029-1.029-2.644-1.488-5.233-1.488c-6.003,0-8.564,4.044-8.564,13.521v39.85c0,9.818,0.956,12.248,6.391,16.234l2.049,1.5
		H17.446l1.985-1.494C24.615,88.816,25.828,86.847,25.828,76.501z M56.32,91.085c-4.828-3.541-5.554-5.449-5.554-14.584v-39.85
		c0-11.476,4.081-11.476,6.518-11.476c1.976,0,3.179,0.283,3.786,0.89c1.435,1.434,1.6,6.297,1.6,9.827v59.841L56.32,91.085z
		 M95.236,91.103c-4.599-3.451-5.585-5.088-5.585-14.602V35.893c0-9.897,3.084-10.717,6.521-10.717c1.976,0,3.471,0.727,4.199,2.033
		c0.683,1.281,0.806,1.514,0.806,7.798v60.549L95.236,91.103z"/>
	<path fill="#E66C27" d="M198.505,93.31l-1.422,0.965h34.709l-1.433-0.965c-4.732-3.184-5.923-5.104-5.923-13.486l-0.143-20.227
		c0-6.648,0.718-9.392,3.201-12.242c1.961-2.408,8.217-4.738,11.893-3.805c2.131,0.552,2.981,0.87,5.828,2.508l0.893,0.51V27.05
		h-2.182c-5.685,0-13.522,1.246-18.575,7.173l-1.829,2.146l0.089-9.376h-26.522l1.416,0.959c4.729,3.206,5.929,4.953,5.929,13.493
		v38.379C204.434,88.367,203.234,90.109,198.505,93.31z"/>
	<path fill="#121718" d="M408.715,120.931c0.195-0.832-0.127-1.727-1.021-1.727h-9.976c-0.705,0-1.214,0.324-1.409,0.895
		c-1.727,4.477-5.241,6.588-10.166,6.588c-6.396,0-11-5.178-11-11.828s4.604-11.834,11-11.834c4.859,0,8.313,2.047,10.104,6.396
		c0.131,0.383,0.578,0.832,1.345,0.832h10.103c0.963,0,1.152-0.832,0.963-1.664c-2.562-10.168-11.451-16.818-22.514-16.818
		c-13.05,0-23.981,10.295-23.981,23.088c0,12.787,10.932,23.148,23.981,23.148C397.333,138.007,406.222,131.23,408.715,120.931z"/>
	<path fill="#121718" d="M451.12,137.308c0.895,0,1.6-0.705,1.6-1.604V94.138c0-0.832-0.705-1.6-1.6-1.6h-9.979
		c-0.895,0-1.596,0.701-1.596,1.6v15.285h-13.752V94.138c0-0.832-0.705-1.6-1.599-1.6h-9.976c-0.895,0-1.6,0.701-1.6,1.6v41.566
		c0,0.898,0.705,1.604,1.6,1.604h9.976c0.894,0,1.599-0.705,1.599-1.604v-15.281h13.752v15.281c0,0.898,0.701,1.604,1.596,1.604
		H451.12z"/>
	<path fill="#121718" d="M470.371,94.138c0-0.898-0.705-1.6-1.599-1.6h-9.979c-0.895,0-1.596,0.701-1.596,1.6v41.566
		c0,0.898,0.701,1.604,1.596,1.604h9.979c0.894,0,1.599-0.705,1.599-1.604V94.138z"/>
	<path fill="#121718" d="M498.829,138.007c11.192,0,20.082-6.777,22.574-17.076c0.193-0.832-0.127-1.727-1.021-1.727h-9.975
		c-0.705,0-1.218,0.324-1.41,0.895c-1.727,4.477-5.241,6.588-10.168,6.588c-6.396,0-11.001-5.178-11.001-11.828
		s4.604-11.834,11.001-11.834c4.858,0,8.314,2.047,10.105,6.396c0.127,0.383,0.578,0.832,1.342,0.832h10.105
		c0.96,0,1.149-0.832,0.96-1.664c-2.559-10.168-11.448-16.818-22.513-16.818c-13.047,0-23.979,10.295-23.979,23.088
		C474.85,127.646,485.782,138.007,498.829,138.007z"/>
	<path fill="#121718" d="M566.235,137.306c1.09,0,1.923-0.959,1.152-2.242c-0.64-1.148-10.295-15.732-12.916-19.633
		c2.813-5.115,10.23-19.951,10.678-20.848c0.705-1.275,0.322-2.047-1.534-2.047h-11.447c-1.151,0-1.792,0.447-2.431,1.6
		c-0.255,0.512-4.478,8.826-7.8,15.285h-3.391V94.136c0-0.898-0.771-1.6-1.603-1.6h-10.037c-0.832,0-1.6,0.701-1.6,1.6v41.57
		c0,0.895,0.768,1.6,1.6,1.6h10.037c0.832,0,1.603-0.705,1.603-1.6v-15.285h3.58c3.775,5.756,9.017,13.621,9.655,14.58
		c1.025,1.473,1.92,2.305,3.264,2.305H566.235z"/>
	<path fill="#121718" d="M602.37,92.537h-29.226c-0.894,0-1.599,0.703-1.599,1.6v41.57c0,0.895,0.705,1.6,1.599,1.6h29.419
		c0.894,0,1.599-0.705,1.599-1.6v-7.805c0-0.895-0.705-1.596-1.599-1.596h-17.844v-5.885h14.325c0.832,0,1.599-0.705,1.599-1.598
		v-7.807c0-0.895-0.767-1.596-1.599-1.596h-14.325v-5.883h17.65c0.832,0,1.6-0.705,1.6-1.6v-7.803
		C603.969,93.24,603.202,92.537,602.37,92.537z"/>
	<path fill="#121718" d="M646.562,137.306c0.894,0,1.596-0.705,1.596-1.6v-41.57c0-0.898-0.702-1.6-1.596-1.6h-9.979
		c-0.894,0-1.596,0.701-1.596,1.6v21.168c0,0-12.472-18.676-13.813-20.467c-1.346-1.787-2.047-2.301-3.584-2.301h-6.904h-0.451
		c-0.832,0-1.599,0.701-1.599,1.6v41.57c0,0.895,0.705,1.6,1.599,1.6h10.041c0.832,0,1.6-0.705,1.6-1.6v-21.553l14.326,21.553
		c0.701,1.021,1.406,1.6,3.263,1.6H646.562z"/>
</g>
</svg>
