<svg width="58" height="32" viewBox="0 0 58 32" fill="none" xmlns="http://www.w3.org/2000/svg">
<g clip-path="url(#clip0)">
<path d="M5.22989 5.07142C5.23892 4.87271 5.2177 4.67379 5.16698 4.48149C5.12727 4.37345 5.106 4.25949 5.10407 4.14438C5.10407 4.00274 5.17876 3.88471 5.32815 3.79028C5.48873 3.69322 5.67364 3.64408 5.86113 3.64864C6.33757 3.64864 6.72305 3.77258 7.01758 4.02045C7.15544 4.12754 7.26695 4.26488 7.34354 4.42191C7.42013 4.57893 7.45976 4.75146 7.45938 4.92624V14.324C7.84061 14.273 8.21468 14.1779 8.57413 14.0408C9.02141 13.8754 9.45118 13.6659 9.85711 13.4154C10.3184 13.1311 10.7485 12.7988 11.1401 12.4239C11.5686 12.0144 11.9433 11.5518 12.2548 11.0472C12.5955 10.4923 12.8617 9.89491 13.0465 9.27033C13.255 8.55752 13.3567 7.81765 13.3484 7.07491C13.3441 6.50343 13.2568 5.93562 13.089 5.3894C12.9182 4.813 12.6399 4.27424 12.269 3.80161C11.8752 3.30866 11.3803 2.90628 10.8178 2.62175C10.224 2.31298 9.5065 2.15859 8.66531 2.15859C7.51593 2.15859 6.52984 2.33635 5.70703 2.69187C4.88423 3.04738 4.21317 3.52683 3.69385 4.13022C3.17058 4.73736 2.78108 5.4483 2.55082 6.21658C2.30507 7.02932 2.18236 7.87439 2.18678 8.7236C2.17737 9.26527 2.23242 9.80614 2.35078 10.3348C2.43392 10.6995 2.55229 11.0553 2.70422 11.3971C2.79971 11.6149 2.92201 11.82 3.06826 12.0075C3.18065 12.1392 3.24569 12.2136 3.26477 12.2327C3.42405 12.1855 3.53621 12.2042 3.60125 12.2887C3.67115 12.3869 3.70578 12.506 3.6995 12.6265C3.68433 12.8286 3.63955 13.0274 3.56661 13.2164C3.47854 13.4762 3.35838 13.7238 3.20893 13.9537C3.07813 14.1646 2.90059 14.3424 2.69008 14.4735C2.49357 14.5901 2.29258 14.5688 2.08711 14.4097C1.90451 14.2317 1.73133 14.0443 1.56827 13.8481C1.29465 13.5141 1.06164 13.1487 0.874112 12.7596C0.618168 12.2328 0.413865 11.6823 0.264077 11.1159C0.0868859 10.4743 -0.00170898 9.73208 -0.00170898 8.88932C-0.00170898 7.54091 0.208469 6.32115 0.628826 5.23005C1.02151 4.18376 1.62526 3.22979 2.40238 2.42771C3.17612 1.64381 4.10608 1.03208 5.13163 0.632422C6.18771 0.211279 7.35618 0.000472133 8.63704 0C9.68369 0 10.6349 0.173273 11.4907 0.519818C12.3136 0.845166 13.0588 1.34057 13.6778 1.97375C14.2909 2.61211 14.7663 3.37001 15.0746 4.20033C15.4087 5.10365 15.575 6.06062 15.5651 7.02392C15.5775 8.21642 15.3486 9.39905 14.8922 10.5005C14.4591 11.5401 13.8521 12.4981 13.0974 13.3333C11.6083 14.9687 9.63091 16.0775 7.4608 16.494V20.285C7.4608 20.5279 7.38163 20.6993 7.22258 20.7977C7.05299 20.8986 6.85849 20.9496 6.66132 20.945C6.49089 20.9444 6.32132 20.9206 6.15731 20.8742C5.99875 20.8313 5.84574 20.7699 5.70138 20.6915C5.57552 20.6243 5.46178 20.5364 5.36491 20.4316C5.28166 20.3473 5.23384 20.2342 5.2313 20.1157L5.22989 5.07142Z" fill="#1A1F15"/>
<path d="M22.7395 19.0456C22.8788 19.0473 23.0171 19.0209 23.1459 18.9678C23.2748 18.9148 23.3917 18.8362 23.4895 18.7368C23.7136 18.5116 23.8986 18.2505 24.0366 17.9641C24.1955 17.6427 24.3222 17.3064 24.4148 16.9599C24.5128 16.5992 24.5948 16.2597 24.6608 15.9415C24.7258 15.6412 24.8215 15.4233 24.9478 15.2878C24.9984 15.2266 25.0614 15.1767 25.1327 15.1417C25.204 15.1067 25.2819 15.0872 25.3613 15.0846C25.4834 15.0872 25.6023 15.1238 25.7048 15.1901C25.8259 15.2638 25.9347 15.356 26.0272 15.4635C26.126 15.5766 26.2066 15.7044 26.2661 15.8424C26.3256 15.9761 26.3567 16.1208 26.3573 16.2673V16.3381C26.3541 16.3815 26.3446 16.4242 26.329 16.4649C26.1971 16.9761 26.0318 17.4781 25.8342 17.9677C25.6288 18.4828 25.3577 18.9692 25.0277 19.4145C24.7037 19.851 24.3006 20.2224 23.8394 20.5094C23.3771 20.7998 22.8373 20.9449 22.2199 20.9449C21.7599 20.9561 21.3052 20.8446 20.9023 20.622C20.5391 20.4173 20.2347 20.1222 20.0187 19.7651C19.7202 20.1013 19.3672 20.3848 18.9747 20.6036C18.5383 20.8405 18.0479 20.9591 17.5517 20.9478C17.0568 20.9606 16.5662 20.8525 16.1223 20.6331C15.6784 20.4136 15.2944 20.0892 15.0034 19.6879C14.7018 19.2739 14.4805 18.8069 14.351 18.3111C14.2027 17.7545 14.1297 17.1805 14.134 16.6044C14.134 15.4056 14.3255 14.3285 14.7087 13.3729C15.0588 12.4705 15.5778 11.6434 16.2376 10.936C16.8531 10.2809 17.5947 9.75765 18.4176 9.39775C19.2199 9.04527 20.0864 8.86344 20.9624 8.86377C21.3554 8.86377 21.6733 8.97165 21.916 9.18742C22.1584 9.39988 22.2807 9.69803 22.2807 10.072C22.2807 10.3156 22.2548 10.4865 22.203 10.5847C22.1521 10.6831 22.0559 10.7327 21.916 10.7327C21.78 10.7321 21.6443 10.7227 21.5095 10.7044C21.3654 10.6855 21.2202 10.676 21.0748 10.6761C20.5047 10.6821 19.9417 10.8041 19.42 11.0344C18.8405 11.2863 18.3218 11.6599 17.8988 12.13C17.445 12.6215 17.0734 13.2442 16.7841 13.9982C16.4947 14.7522 16.3498 15.6493 16.3493 16.6894C16.3493 17.4476 16.4942 18.0305 16.7841 18.4379C16.915 18.6313 17.0925 18.7884 17.3003 18.8946C17.508 19.0009 17.7392 19.0528 17.9723 19.0456C18.1585 19.0491 18.3431 19.0112 18.5129 18.9347C18.6826 18.8582 18.8334 18.7448 18.9542 18.6029C19.2241 18.2946 19.4375 17.941 19.5847 17.5583V13.12C19.586 13.0029 19.5792 12.8857 19.5642 12.7695C19.5494 12.6753 19.5359 12.596 19.5218 12.5301C19.5076 12.4643 19.4956 12.4069 19.4864 12.3545C19.4776 12.3059 19.4731 12.2566 19.473 12.2072C19.4732 12.1333 19.4935 12.0609 19.5318 11.9978C19.57 11.9346 19.6247 11.8831 19.69 11.8488C19.8495 11.7562 20.0317 11.7101 20.2159 11.7157C20.6924 11.7157 21.071 11.8399 21.3519 12.0882C21.4834 12.1964 21.5893 12.3325 21.662 12.4867C21.7346 12.6409 21.7721 12.8093 21.7718 12.9798V17.7248C21.7718 17.8834 21.7907 18.0416 21.8283 18.1957C21.8627 18.345 21.9194 18.4883 21.9966 18.6206C22.0705 18.7467 22.1741 18.8527 22.2984 18.9294C22.4312 19.0099 22.5844 19.0502 22.7395 19.0456Z" fill="#1A1F15"/>
<path d="M34.9976 15.9444C35.0815 15.6441 35.1797 15.4262 35.2924 15.2907C35.3376 15.2287 35.3966 15.1781 35.4646 15.1428C35.5327 15.1075 35.6081 15.0886 35.6847 15.0875C35.8098 15.0903 35.9319 15.1267 36.0381 15.193C36.1621 15.2655 36.2733 15.3579 36.3675 15.4664C36.4661 15.5795 36.5465 15.7073 36.6058 15.8453C36.6652 15.979 36.6963 16.1237 36.6969 16.2702V16.3821C36.6965 16.4393 36.6872 16.4962 36.6694 16.5506C36.4537 17.3124 36.1698 18.0531 35.8211 18.7637C35.2603 19.8976 34.5246 20.9358 33.6411 21.8402C33.2457 22.2358 32.8532 22.6027 32.4635 22.9407V27.9144C32.4635 28.6698 32.377 29.3088 32.204 29.8315C32.0311 30.3541 31.8044 30.7755 31.524 31.0956C31.2662 31.4025 30.9377 31.6419 30.5669 31.7932C30.2235 31.9318 29.857 32.0039 29.4868 32.0056C29.102 32.0096 28.722 31.9201 28.3791 31.745C28.0418 31.5716 27.7437 31.3305 27.5033 31.0368C27.2483 30.7241 27.0532 30.3668 26.9279 29.983C26.7906 29.5664 26.7221 29.13 26.725 28.6913C26.714 28.0335 26.8112 27.3784 27.0127 26.7522C27.1976 26.2029 27.4594 25.6826 27.7903 25.2069C28.1244 24.7297 28.506 24.2877 28.9291 23.8876C29.3588 23.4806 29.8122 23.0663 30.2891 22.6447V18.9925C29.9751 19.5359 29.5667 20.0187 29.0832 20.4181C28.6277 20.7875 28.0567 20.9841 27.4708 20.9733C27.0328 20.9833 26.5992 20.8851 26.208 20.6875C25.8168 20.4899 25.4802 20.1989 25.2279 19.8402C24.9499 19.4456 24.7478 19.0025 24.632 18.5336C24.4905 17.9759 24.422 17.4022 24.4284 16.8268C24.4289 16.0608 24.4828 15.2957 24.5895 14.5372C24.697 13.7695 24.8162 13.0764 24.9472 12.4579C25.0966 11.737 25.2693 11.0394 25.4654 10.3652C25.5122 10.2447 25.5474 10.1199 25.5707 9.99269C25.5946 9.86618 25.65 9.74778 25.7319 9.64851C25.8405 9.53015 25.9786 9.44289 26.132 9.39568C26.3143 9.33052 26.5971 9.29771 26.9802 9.29724C27.3351 9.29724 27.5641 9.36051 27.6673 9.48704C27.7175 9.54806 27.7541 9.61911 27.7747 9.69544C27.7953 9.77176 27.7994 9.85162 27.7868 9.92966C27.7588 10.1108 27.702 10.2864 27.6185 10.4495C27.5448 10.588 27.486 10.734 27.4432 10.885C27.3117 11.4181 27.1939 11.9051 27.0898 12.346C26.9856 12.787 26.8994 13.2294 26.8311 13.6732C26.7613 14.118 26.7076 14.5816 26.6699 15.0641C26.6322 15.5466 26.6133 16.0875 26.6133 16.6866C26.6133 17.4727 26.7278 18.0673 26.9569 18.4705C27.1859 18.8737 27.5108 19.0751 27.9317 19.0746C28.231 19.071 28.5182 18.9559 28.7375 18.7517C29.0099 18.5048 29.2376 18.2125 29.4104 17.8877C29.6261 17.494 29.8023 17.0798 29.9364 16.6512C30.0899 16.176 30.2081 15.69 30.2898 15.1972V10.5635C30.2973 10.3652 30.2786 10.1669 30.234 9.97357C30.1987 9.86487 30.1798 9.75147 30.1781 9.63718C30.1796 9.56536 30.2006 9.49529 30.2388 9.43453C30.277 9.37376 30.3311 9.32458 30.3951 9.29228C30.5546 9.19969 30.7368 9.15358 30.921 9.15914C31.3975 9.15914 31.7745 9.28331 32.052 9.53165C32.1817 9.64091 32.2858 9.77744 32.3569 9.93153C32.428 10.0856 32.4644 10.2535 32.4635 10.4233V20.5236C33.0089 19.9119 33.4926 19.2477 33.9076 18.5407C34.3779 17.7243 34.7441 16.8521 34.9976 15.9444ZM29.484 30.1884C29.5861 30.1926 29.6874 30.1684 29.7767 30.1184C29.8659 30.0684 29.9395 29.9946 29.9894 29.9051C30.1065 29.7039 30.1849 29.4824 30.2205 29.2522C30.2627 29.0039 30.2837 28.7526 30.2834 28.5008V24.8358C29.8198 25.2974 29.4374 25.8343 29.1524 26.4236C28.8669 27.0138 28.7241 27.7395 28.7241 28.6006C28.7241 29.0501 28.7919 29.4278 28.9277 29.7337C29.0634 30.0397 29.2498 30.1912 29.4868 30.1884H29.484Z" fill="#1A1F15"/>
<path d="M52.215 16.4641C52.0729 16.9743 51.9021 17.4761 51.7033 17.9669C51.4982 18.4822 51.2271 18.9685 50.8967 19.4137C50.5752 19.8488 50.1759 20.2203 49.7191 20.5093C49.261 20.7997 48.7235 20.9449 48.1067 20.9449C47.7557 20.9516 47.4078 20.8772 47.0902 20.7275C46.8009 20.5864 46.5433 20.3879 46.3331 20.1439C46.1185 19.8932 45.9564 19.6018 45.8567 19.287C45.7474 18.9514 45.6927 18.6003 45.6948 18.2473V12.404C45.6948 12.1795 45.6899 11.9684 45.6814 11.7716C45.6742 11.5967 45.6505 11.4229 45.6107 11.2525C45.5824 11.123 45.5272 11.0009 45.4488 10.8941C45.4151 10.8505 45.3714 10.8156 45.3215 10.7923C45.2716 10.769 45.2168 10.7581 45.1618 10.7603C44.9653 10.7603 44.7269 10.9007 44.4465 11.1816C44.1299 11.5108 43.8562 11.879 43.6321 12.2772C43.3543 12.7646 43.1203 13.2758 42.933 13.8048C42.7327 14.3528 42.6111 14.9265 42.5718 15.5087V19.7091C42.5718 19.8507 42.5718 19.9923 42.5648 20.134C42.562 20.2692 42.5335 20.4026 42.4806 20.527C42.4287 20.6446 42.3464 20.7463 42.2424 20.8216C42.135 20.9019 41.9783 20.9418 41.7723 20.9413C41.6193 20.9401 41.4668 20.9235 41.3171 20.8918C41.1571 20.8607 41.0047 20.7989 40.8682 20.7097C40.7261 20.6134 40.6105 20.4829 40.5318 20.3302C40.4339 20.1289 40.3868 19.9066 40.3946 19.6829V12.404C40.3946 12.1795 40.3883 11.9684 40.3741 11.7716C40.3634 11.5966 40.3376 11.423 40.2971 11.2525C40.269 11.123 40.2141 11.0009 40.1359 10.8941C40.1021 10.8504 40.0583 10.8155 40.0083 10.7922C39.9582 10.769 39.9033 10.758 39.8482 10.7603C39.6517 10.7603 39.4161 10.9007 39.1413 11.1816C38.8288 11.5134 38.5566 11.8812 38.3306 12.2772C38.046 12.7622 37.8093 13.2738 37.6237 13.8048C37.4263 14.3554 37.3013 14.9294 37.2519 15.5123V19.7126C37.2519 19.8542 37.2519 19.9959 37.2448 20.1375C37.2424 20.2728 37.2139 20.4063 37.1607 20.5306C37.1089 20.6483 37.0267 20.75 36.9225 20.8252C36.815 20.9052 36.6581 20.9449 36.4531 20.9449C36.2998 20.9436 36.1471 20.927 35.9972 20.8953C35.8373 20.864 35.6849 20.8022 35.5483 20.7133C35.4064 20.6168 35.2907 20.4863 35.2118 20.3337C35.1152 20.1309 35.0695 19.9074 35.0789 19.6829V10.5634C35.0875 10.3647 35.0663 10.1658 35.016 9.97344C34.9761 9.86569 34.9546 9.75196 34.9524 9.63705C34.9524 9.49541 35.0273 9.38045 35.1772 9.29216C35.3409 9.19917 35.527 9.15311 35.7151 9.15902C36.1925 9.15902 36.5695 9.28319 36.8461 9.53153C36.9761 9.64065 37.0806 9.77709 37.152 9.93119C37.2235 10.0853 37.2602 10.2532 37.2596 10.4232V11.6313C37.4385 11.253 37.6423 10.887 37.8697 10.5358C38.073 10.2183 38.31 9.92391 38.5765 9.65759C38.8123 9.42141 39.0844 9.22463 39.3824 9.07474C39.6682 8.93367 39.9827 8.86095 40.3013 8.86228C40.7311 8.86228 41.0886 8.94207 41.3737 9.10165C41.6504 9.25337 41.8862 9.47015 42.0607 9.73337C42.236 10.0015 42.3619 10.2989 42.4326 10.6115C42.5067 10.9278 42.5539 11.2497 42.5739 11.574C42.7438 11.204 42.9406 10.847 43.1628 10.506C43.3639 10.1951 43.5991 9.90768 43.864 9.64909C44.1012 9.41616 44.3733 9.22188 44.6705 9.07332C44.9563 8.93206 45.2709 8.85933 45.5895 8.86086C46.0574 8.86086 46.4408 8.94986 46.7396 9.12785C47.0273 9.29467 47.2685 9.53141 47.4408 9.81622C47.6134 10.1065 47.7331 10.4252 47.7942 10.7574C47.8582 11.0907 47.8911 11.4293 47.8925 11.7687V17.7247C47.8925 17.7905 47.8967 17.8961 47.9066 18.0413C47.9163 18.1916 47.9444 18.3403 47.99 18.4839C48.0346 18.6286 48.1087 18.7625 48.2078 18.8769C48.2617 18.9345 48.3277 18.9795 48.401 19.0086C48.4743 19.0378 48.5532 19.0503 48.6319 19.0455C48.7712 19.0472 48.9094 19.0208 49.0383 18.9677C49.1672 18.9147 49.2841 18.8361 49.3819 18.7367C49.6035 18.5118 49.7865 18.2517 49.9233 17.9669C50.0825 17.6448 50.2115 17.3086 50.3086 16.9627C50.4118 16.602 50.4959 16.2625 50.5609 15.9443C50.6175 15.644 50.7087 15.4261 50.8345 15.2906C50.8851 15.2293 50.9482 15.1795 51.0195 15.1445C51.0908 15.1094 51.1687 15.09 51.248 15.0874C51.3701 15.09 51.489 15.1265 51.5916 15.1929C51.7126 15.2665 51.8214 15.3588 51.9139 15.4662C52.0127 15.5794 52.0933 15.7072 52.1528 15.8451C52.2123 15.9789 52.2434 16.1236 52.244 16.27V16.3409C52.24 16.3831 52.2302 16.4245 52.215 16.4641Z" fill="#1A1F15"/>
<path d="M52.7712 17.7275C52.7712 17.7934 52.7761 17.8989 52.7853 18.0441C52.7956 18.1945 52.8238 18.3431 52.8694 18.4867C52.9139 18.6328 52.9905 18.7671 53.0935 18.8798C53.1498 18.937 53.2178 18.9815 53.2928 19.0101C53.3678 19.0387 53.4481 19.0508 53.5282 19.0455C53.6654 19.0463 53.8013 19.0193 53.9279 18.9663C54.0544 18.9132 54.169 18.8351 54.2648 18.7367C54.4885 18.5114 54.6732 18.2503 54.8112 17.9641C54.9706 17.642 55.0998 17.3058 55.1972 16.9599C55.2994 16.5991 55.3835 16.2597 55.4495 15.9415C55.5051 15.6511 55.5914 15.4403 55.7082 15.309C55.8024 15.1908 55.9378 15.1129 56.0871 15.0909C56.2306 15.079 56.3739 15.1162 56.4936 15.1964C56.6333 15.2845 56.7567 15.3962 56.8583 15.5265C56.9658 15.6624 57.0469 15.8173 57.0972 15.9833C57.1477 16.1377 57.1548 16.3031 57.1177 16.4613C56.976 16.9716 56.8051 17.4734 56.606 17.9641C56.4009 18.4794 56.1298 18.9657 55.7994 19.4109C55.4779 19.846 55.0786 20.2174 54.6218 20.5065C54.1637 20.7969 53.6262 20.9421 53.0094 20.9421C52.6561 20.9483 52.3061 20.874 51.9858 20.7246C51.6952 20.5858 51.4372 20.3869 51.2287 20.1411C51.0179 19.8888 50.8582 19.5977 50.7587 19.2842C50.6503 18.9484 50.5959 18.5974 50.5975 18.2445V10.5634C50.6064 10.3647 50.5852 10.1658 50.5346 9.97347C50.4952 9.86559 50.474 9.75192 50.4717 9.63708C50.4717 9.49544 50.5466 9.38047 50.6965 9.29218C50.8585 9.2002 51.0425 9.15418 51.2287 9.15904C51.7052 9.15904 52.0822 9.28321 52.3597 9.53155C52.4898 9.64067 52.5942 9.77712 52.6657 9.93121C52.7371 10.0853 52.7739 10.2533 52.7733 10.4232L52.7712 17.7275Z" fill="#1A1F15"/>
<path d="M51.5526 6.73207C51.1913 6.73828 50.8328 6.66755 50.5008 6.52457C50.1757 6.38728 49.8803 6.18786 49.6313 5.93747C49.382 5.68669 49.1797 5.39308 49.034 5.07063C48.8811 4.73433 48.8008 4.3694 48.7986 3.99983C48.7896 3.61963 48.8597 3.2417 49.0043 2.89009C49.1384 2.56233 49.3332 2.26294 49.5783 2.00767C50.081 1.4984 50.7636 1.20786 51.4784 1.1989C51.8569 1.19079 52.2333 1.25744 52.5861 1.39507C52.9155 1.52095 53.2157 1.71297 53.4683 1.95935C53.7209 2.20572 53.9205 2.50125 54.055 2.82776C54.2017 3.1774 54.278 3.55259 54.2798 3.93185C54.2875 4.30028 54.2206 4.66647 54.0832 5.00831C53.9515 5.33531 53.7597 5.63463 53.5177 5.89073C53.2632 6.15676 52.9577 6.36868 52.6196 6.51384C52.2815 6.659 51.9176 6.73442 51.5498 6.73561L51.5526 6.73207Z" fill="#F6B747"/>
<path d="M54.8522 25.7737C52.065 26.353 48.6126 26.96 45.8749 27.2121C43.1372 27.4642 41.0908 27.5867 38.3361 27.6151C37.7559 27.6171 37.1765 27.5721 36.6035 27.4805C35.9518 27.3714 35.428 26.7723 36.1617 26.5011C36.7717 26.2794 37.5889 26.2617 38.3042 26.2135C43.0248 25.9749 47.6025 25.2022 50.336 24.6555C51.7208 24.3063 53.594 23.9473 55.5471 23.6024C56.8562 23.3729 57.8091 23.5146 57.9773 24.0309C58.1456 24.5471 57.3602 25.1739 56.0978 25.5067C55.6934 25.6094 55.2707 25.6845 54.8522 25.7737Z" fill="#1A1F15"/>
</g>
<defs>
<clipPath id="clip0">
<rect width="58" height="32" fill="white"/>
</clipPath>
</defs>
</svg>
