<svg width="128" height="71" viewBox="0 0 128 71" fill="none" xmlns="http://www.w3.org/2000/svg">
<g clip-path="url(#clip0)">
<path d="M11.5415 11.1921C11.5614 10.7536 11.5145 10.3146 11.4026 9.89018C11.315 9.65176 11.268 9.40026 11.2638 9.14622C11.2638 8.83364 11.4286 8.57315 11.7583 8.36476C12.1127 8.15054 12.5208 8.0421 12.9345 8.05218C13.986 8.05218 14.8367 8.32569 15.4867 8.87271C15.7909 9.10906 16.037 9.41215 16.2061 9.75869C16.3751 10.1052 16.4625 10.486 16.4617 10.8717V31.6117C17.303 31.4989 18.1286 31.2892 18.9218 30.9865C19.9089 30.6216 20.8574 30.1593 21.7532 29.6065C22.7713 28.979 23.7204 28.2456 24.5847 27.4184C25.5304 26.5146 26.3571 25.4936 27.0448 24.38C27.7967 23.1555 28.3841 21.837 28.792 20.4587C29.2521 18.8856 29.4765 17.2527 29.4581 15.6136C29.4488 14.3524 29.2559 13.0993 28.8856 11.8938C28.5087 10.6218 27.8947 9.4328 27.076 8.38977C26.207 7.30188 25.1148 6.41387 23.8733 5.78594C22.5629 5.10451 20.9795 4.76379 19.1231 4.76379C16.5865 4.76379 14.4103 5.15608 12.5945 5.94067C10.7786 6.72526 9.29764 7.78336 8.15156 9.11497C6.99675 10.4549 6.13718 12.0238 5.62903 13.7193C5.08667 15.513 4.81586 17.378 4.82562 19.2521C4.80485 20.4475 4.92635 21.6411 5.18755 22.8077C5.37104 23.6127 5.63227 24.3979 5.96755 25.1521C6.1783 25.633 6.44819 26.0856 6.77095 26.4994C7.01899 26.7901 7.16251 26.9542 7.20463 26.9964C7.55615 26.8922 7.80368 26.9333 7.9472 27.1198C8.10147 27.3367 8.1779 27.5994 8.16404 27.8654C8.13055 28.3114 8.03174 28.7501 7.87076 29.1673C7.67641 29.7405 7.41122 30.2871 7.0814 30.7943C6.79274 31.2597 6.40092 31.6523 5.93635 31.9415C5.50267 32.1988 5.05911 32.1519 4.60566 31.8008C4.20268 31.4079 3.82048 30.9942 3.46062 30.5614C2.85679 29.8243 2.34254 29.0179 1.9287 28.1592C1.36385 26.9965 0.912978 25.7816 0.582411 24.5316C0.191369 23.1156 -0.00415039 21.4777 -0.00415039 19.6178C-0.00415039 16.642 0.459691 13.9501 1.38737 11.5422C2.25398 9.23312 3.5864 7.12781 5.30143 5.3577C7.009 3.62771 9.06133 2.2777 11.3246 1.39569C13.6553 0.466271 16.2339 0.00104195 19.0607 0C21.3705 0 23.4698 0.382395 25.3584 1.14719C27.1744 1.86519 28.819 2.9585 30.1851 4.35587C31.5381 5.76465 32.5874 7.43727 33.2676 9.2697C34.005 11.2632 34.372 13.3752 34.3503 15.5011C34.3776 18.1328 33.8724 20.7427 32.8652 23.1735C31.9094 25.4679 30.5699 27.5821 28.9043 29.4252C25.6179 33.0343 21.254 35.4813 16.4648 36.4005V44.7668C16.4648 45.3029 16.2901 45.6811 15.9391 45.8984C15.5648 46.121 15.1356 46.2337 14.7005 46.2235C14.3243 46.2222 13.9501 46.1696 13.5882 46.0672C13.2383 45.9725 12.9006 45.8371 12.582 45.6639C12.3042 45.5156 12.0532 45.3217 11.8394 45.0903C11.6557 44.9044 11.5502 44.6549 11.5446 44.3933L11.5415 11.1921Z" fill="#FBF7EF"/>
<path d="M50.1838 42.0317C50.4913 42.0356 50.7964 41.9772 51.0808 41.8601C51.3652 41.743 51.6231 41.5696 51.839 41.3502C52.3336 40.8534 52.7418 40.277 53.0464 39.6451C53.3971 38.9358 53.6767 38.1934 53.881 37.4289C54.0973 36.6328 54.2783 35.8836 54.4239 35.1814C54.5674 34.5187 54.7785 34.0378 55.0572 33.7388C55.169 33.6035 55.3081 33.4936 55.4654 33.4163C55.6228 33.3389 55.7947 33.296 55.9699 33.2902C56.2392 33.2961 56.5017 33.3767 56.728 33.5231C56.9952 33.6857 57.2352 33.8893 57.4394 34.1264C57.6574 34.376 57.8352 34.6581 57.9667 34.9626C58.098 35.2578 58.1665 35.5771 58.1679 35.9003V36.0566C58.1609 36.1524 58.1399 36.2467 58.1055 36.3364C57.8144 37.4646 57.4496 38.5725 57.0135 39.6529C56.5603 40.7898 55.962 41.8631 55.2335 42.8459C54.5186 43.8092 53.6289 44.6289 52.6112 45.2622C51.5909 45.903 50.3996 46.2234 49.0372 46.2234C48.022 46.248 47.0185 46.002 46.1293 45.5107C45.3277 45.059 44.656 44.4076 44.1793 43.6196C43.5205 44.3617 42.7415 44.9873 41.8752 45.4701C40.9123 45.9929 39.8298 46.2547 38.7349 46.2297C37.6427 46.2579 36.5601 46.0195 35.5803 45.5351C34.6006 45.0507 33.7532 44.3349 33.1111 43.4492C32.4455 42.5357 31.9571 41.5051 31.6712 40.4109C31.3439 39.1825 31.1828 37.9156 31.1923 36.6443C31.1923 33.9988 31.615 31.6216 32.4606 29.5127C33.2334 27.5211 34.3787 25.6958 35.8349 24.1346C37.1931 22.689 38.8298 21.5342 40.6459 20.74C42.4164 19.9621 44.3287 19.5608 46.2619 19.5615C47.1293 19.5615 47.8308 19.7996 48.3664 20.2758C48.9015 20.7447 49.1714 21.4026 49.1714 22.2279C49.1714 22.7655 49.1141 23.1427 48.9997 23.3594C48.8874 23.5767 48.6753 23.6861 48.3664 23.6861C48.0663 23.6848 47.7667 23.6639 47.4694 23.6236C47.1513 23.5819 46.8308 23.561 46.51 23.561C45.2518 23.5745 44.0094 23.8435 42.858 24.3519C41.5791 24.9078 40.4343 25.7323 39.5009 26.7697C38.4994 27.8544 37.6793 29.2287 37.0407 30.8927C36.4022 32.5567 36.0824 34.5364 36.0813 36.8318C36.0813 38.5052 36.4011 39.7915 37.0407 40.6907C37.3297 41.1175 37.7216 41.4642 38.18 41.6986C38.6385 41.933 39.1486 42.0476 39.6631 42.0317C40.0739 42.0395 40.4813 41.9559 40.856 41.787C41.2307 41.6181 41.5634 41.368 41.83 41.0548C42.4256 40.3744 42.8967 39.594 43.2215 38.7495V28.9547C43.2244 28.6961 43.2093 28.4376 43.1763 28.181C43.1435 27.9732 43.1138 27.7981 43.0826 27.6528C43.0514 27.5074 43.0249 27.3808 43.0046 27.2652C42.9851 27.1579 42.9752 27.0491 42.975 26.9401C42.9754 26.7771 43.0203 26.6173 43.1047 26.4779C43.1891 26.3386 43.3098 26.2249 43.4539 26.1492C43.8059 25.9449 44.2079 25.8431 44.6146 25.8554C45.666 25.8554 46.5017 26.1294 47.1215 26.6775C47.4118 26.9162 47.6455 27.2166 47.8058 27.5569C47.966 27.8972 48.0488 28.269 48.0481 28.6452V39.1168C48.0481 39.467 48.09 39.816 48.1729 40.1562C48.2488 40.4857 48.374 40.8018 48.5442 41.0939C48.7073 41.3722 48.936 41.6062 49.2104 41.7753C49.5034 41.953 49.8414 42.042 50.1838 42.0317Z" fill="#FBF7EF"/>
<path d="M77.236 35.1876C77.4211 34.525 77.638 34.0441 77.8865 33.7451C77.9863 33.6082 78.1164 33.4965 78.2667 33.4186C78.4169 33.3408 78.5832 33.299 78.7523 33.2965C79.0284 33.3027 79.2978 33.3831 79.5323 33.5294C79.8058 33.6895 80.0514 33.8933 80.2593 34.1327C80.4768 34.3824 80.6541 34.6645 80.785 34.9688C80.9163 35.264 80.9848 35.5834 80.9862 35.9066V36.1535C80.9852 36.2799 80.9647 36.4054 80.9254 36.5255C80.4495 38.2067 79.8229 39.8414 79.0534 41.4096C77.8158 43.912 76.1922 46.2032 74.2423 48.199C73.3698 49.0721 72.5035 49.8817 71.6434 50.6277V61.6041C71.6434 63.2713 71.4525 64.6815 71.0709 65.835C70.6892 66.9884 70.1889 67.9184 69.5701 68.6248C69.0012 69.3021 68.2762 69.8304 67.4579 70.1643C66.7001 70.4702 65.8912 70.6293 65.0742 70.6332C64.225 70.6418 63.3863 70.4444 62.6297 70.058C61.8853 69.6752 61.2274 69.1433 60.6968 68.4951C60.134 67.805 59.7035 67.0165 59.427 66.1694C59.1241 65.2499 58.9729 64.287 58.9793 63.3187C58.9549 61.867 59.1694 60.4212 59.6142 59.0394C60.0222 57.827 60.5999 56.6787 61.3302 55.6291C62.0676 54.5759 62.9096 53.6004 63.8434 52.7174C64.7918 51.8192 65.7923 50.9049 66.8448 49.9744V41.9145C66.1518 43.1136 65.2505 44.1791 64.1834 45.0606C63.1782 45.8759 61.9182 46.3098 60.6251 46.2859C59.6585 46.308 58.7015 46.0914 57.8382 45.6553C56.975 45.2192 56.2321 44.5769 55.6752 43.7853C55.0616 42.9144 54.6157 41.9364 54.3601 40.9017C54.0478 39.671 53.8968 38.4048 53.9108 37.135C53.912 35.4445 54.0308 33.7561 54.2665 32.0821C54.5036 30.3879 54.7667 28.8583 55.0558 27.4934C55.3855 25.9023 55.7667 24.3628 56.1993 22.8749C56.3026 22.6089 56.3804 22.3336 56.4318 22.0528C56.4845 21.7736 56.6069 21.5123 56.7875 21.2933C57.0271 21.0321 57.3319 20.8395 57.6704 20.7353C58.0729 20.5915 58.6969 20.5191 59.5424 20.518C60.3255 20.518 60.831 20.6577 61.0587 20.9369C61.1695 21.0716 61.2503 21.2284 61.2958 21.3968C61.3412 21.5653 61.3503 21.7415 61.3224 21.9137C61.2608 22.3136 61.1354 22.7009 60.9511 23.0609C60.7884 23.3666 60.6587 23.6889 60.5642 24.0221C60.2741 25.1985 60.0141 26.2732 59.7842 27.2464C59.5544 28.2196 59.3641 29.1959 59.2133 30.1753C59.0593 31.1569 58.9408 32.1801 58.8576 33.2449C58.7744 34.3098 58.7328 35.5033 58.7328 36.8256C58.7328 38.5604 58.9855 39.8728 59.4909 40.7626C59.9964 41.6524 60.7135 42.0968 61.6422 42.0957C62.3028 42.0877 62.9367 41.8336 63.4206 41.3831C64.0218 40.8382 64.5243 40.193 64.9057 39.4763C65.3817 38.6074 65.7705 37.6933 66.0664 36.7474C66.4053 35.6987 66.666 34.6262 66.8464 33.5387V23.3126C66.863 22.875 66.8215 22.4372 66.7231 22.0106C66.6452 21.7707 66.6037 21.5205 66.5999 21.2682C66.6031 21.1097 66.6494 20.9551 66.7338 20.821C66.8182 20.6869 66.9375 20.5784 67.0788 20.5071C67.4308 20.3028 67.8328 20.201 68.2394 20.2133C69.2909 20.2133 70.1229 20.4873 70.7355 21.0354C71.0217 21.2765 71.2514 21.5778 71.4083 21.9179C71.5652 22.2579 71.6455 22.6284 71.6434 23.0031V45.2935C72.8471 43.9436 73.9146 42.4777 74.8305 40.9173C75.8683 39.1157 76.6765 37.1908 77.236 35.1876ZM65.068 66.6227C65.2934 66.632 65.517 66.5785 65.7139 66.4682C65.9108 66.3578 66.0733 66.1949 66.1834 65.9975C66.4418 65.5533 66.6148 65.0646 66.6935 64.5565C66.7865 64.0087 66.833 63.4539 66.8323 62.8983V54.8101C65.8091 55.8288 64.9652 57.0135 64.3363 58.3142C63.7061 59.6166 63.3909 61.2181 63.3909 63.1186C63.3909 64.1106 63.5407 64.9441 63.8402 65.6193C64.1397 66.2945 64.5511 66.6289 65.0742 66.6227H65.068Z" fill="#FBF7EF"/>
<path d="M115.233 36.3349C114.919 37.4609 114.542 38.5682 114.103 39.6514C113.651 40.7886 113.052 41.862 112.323 42.8445C111.614 43.8045 110.733 44.6243 109.724 45.2623C108.714 45.9031 107.527 46.2235 106.166 46.2235C105.391 46.2384 104.624 46.0742 103.923 45.7437C103.284 45.4324 102.716 44.9942 102.252 44.4558C101.778 43.9026 101.421 43.2594 101.201 42.5647C100.959 41.8241 100.839 41.0494 100.843 40.2703V27.3747C100.843 26.8792 100.832 26.4135 100.814 25.979C100.798 25.593 100.746 25.2094 100.658 24.8333C100.595 24.5476 100.474 24.2781 100.3 24.0425C100.226 23.9463 100.13 23.8693 100.02 23.8179C99.9094 23.7665 99.7886 23.7422 99.6671 23.7471C99.2335 23.7471 98.7072 24.0571 98.0884 24.677C97.3897 25.4036 96.7858 26.216 96.2913 27.0949C95.6781 28.1705 95.1617 29.2987 94.7484 30.4661C94.3063 31.6754 94.0379 32.9415 93.9513 34.2265V43.4962C93.9513 43.8088 93.9513 44.1214 93.9357 44.434C93.9297 44.7323 93.8667 45.0268 93.75 45.3014C93.6353 45.5609 93.4539 45.7853 93.2243 45.9516C92.9872 46.1287 92.6414 46.2167 92.1869 46.2157C91.8492 46.2129 91.5127 46.1763 91.1823 46.1063C90.8292 46.0378 90.4928 45.9014 90.1917 45.7046C89.8781 45.492 89.6227 45.204 89.4491 44.8669C89.233 44.4227 89.1291 43.9322 89.1465 43.4384V27.3747C89.1465 26.8792 89.1324 26.4135 89.1012 25.979C89.0774 25.5929 89.0206 25.2096 88.9312 24.8333C88.8692 24.5477 88.748 24.2782 88.5755 24.0425C88.5008 23.9462 88.4042 23.8691 88.2938 23.8177C88.1833 23.7663 88.0622 23.7421 87.9406 23.7471C87.5069 23.7471 86.9869 24.0571 86.3806 24.677C85.6908 25.4093 85.0902 26.2209 84.5912 27.0949C83.9633 28.1652 83.4408 29.2943 83.0312 30.4661C82.5956 31.6812 82.3197 32.9479 82.2107 34.2343V43.504C82.2107 43.8166 82.2107 44.1292 82.1951 44.4418C82.1899 44.7402 82.1268 45.0348 82.0094 45.3092C81.8952 45.569 81.7137 45.7935 81.4837 45.9594C81.2466 46.136 80.9003 46.2235 80.4479 46.2235C80.1097 46.2208 79.7726 46.1842 79.4417 46.1141C79.0888 46.045 78.7526 45.9086 78.4511 45.7124C78.1379 45.4994 77.8826 45.2115 77.7085 44.8747C77.4952 44.4271 77.3945 43.934 77.4152 43.4384V23.3126C77.4341 22.8741 77.3873 22.4353 77.2764 22.0107C77.1883 21.7729 77.1408 21.5219 77.136 21.2683C77.136 20.9557 77.3013 20.702 77.6321 20.5072C77.9934 20.302 78.4041 20.2003 78.8192 20.2133C79.8728 20.2133 80.7048 20.4874 81.3152 21.0354C81.6021 21.2763 81.8326 21.5774 81.9903 21.9174C82.1481 22.2575 82.2291 22.6282 82.2278 23.0032V25.6695C82.6225 24.8345 83.0723 24.0268 83.5741 23.2517C84.0228 22.5512 84.5459 21.9014 85.1341 21.3136C85.6545 20.7924 86.2549 20.3581 86.9125 20.0274C87.5432 19.716 88.2374 19.5555 88.9405 19.5585C89.889 19.5585 90.6779 19.7346 91.3071 20.0867C91.9177 20.4216 92.4381 20.9 92.8234 21.4809C93.2101 22.0727 93.488 22.729 93.644 23.4189C93.8075 24.1168 93.9118 24.8274 93.956 25.5429C94.3308 24.7264 94.7651 23.9386 95.2554 23.186C95.6994 22.4999 96.2184 21.8656 96.803 21.2949C97.3264 20.7808 97.927 20.3521 98.5829 20.0242C99.2135 19.7125 99.9078 19.552 100.611 19.5554C101.644 19.5554 102.49 19.7518 103.149 20.1446C103.784 20.5127 104.316 21.0352 104.697 21.6637C105.077 22.3043 105.342 23.0076 105.477 23.7409C105.618 24.4765 105.69 25.2236 105.693 25.9727V39.1169C105.693 39.2622 105.703 39.4951 105.725 39.8155C105.746 40.1474 105.808 40.4755 105.909 40.7923C106.007 41.1118 106.171 41.4072 106.389 41.6598C106.508 41.7869 106.654 41.8861 106.816 41.9504C106.978 42.0147 107.151 42.0425 107.325 42.0317C107.633 42.0356 107.938 41.9773 108.222 41.8602C108.507 41.7431 108.764 41.5697 108.98 41.3503C109.47 40.854 109.873 40.2799 110.175 39.6514C110.527 38.9406 110.811 38.1987 111.026 37.4352C111.253 36.6391 111.439 35.89 111.582 35.1877C111.707 34.525 111.908 34.0442 112.186 33.7451C112.298 33.6099 112.437 33.4999 112.594 33.4226C112.752 33.3453 112.924 33.3023 113.099 33.2966C113.368 33.3024 113.631 33.383 113.857 33.5294C114.124 33.692 114.364 33.8956 114.568 34.1327C114.786 34.3824 114.964 34.6645 115.096 34.9689C115.227 35.2641 115.295 35.5835 115.297 35.9067V36.0629C115.288 36.1561 115.266 36.2476 115.233 36.3349Z" fill="#FBF7EF"/>
<path d="M116.461 39.1231C116.461 39.2685 116.472 39.5013 116.492 39.8217C116.515 40.1536 116.577 40.4815 116.678 40.7986C116.776 41.121 116.945 41.4174 117.172 41.666C117.296 41.7924 117.446 41.8904 117.612 41.9535C117.778 42.0166 117.955 42.0433 118.131 42.0317C118.434 42.0334 118.734 41.9739 119.013 41.8568C119.293 41.7397 119.546 41.5675 119.757 41.3503C120.251 40.8529 120.658 40.2767 120.963 39.6451C121.315 38.9344 121.6 38.1925 121.815 37.4289C122.04 36.6328 122.226 35.8837 122.372 35.1814C122.494 34.5406 122.685 34.0754 122.942 33.7857C123.15 33.5248 123.449 33.3528 123.779 33.3043C124.095 33.278 124.412 33.3601 124.676 33.5372C124.984 33.7316 125.256 33.978 125.481 34.2655C125.718 34.5655 125.897 34.9074 126.008 35.2736C126.119 35.6145 126.135 35.9794 126.053 36.3286C125.74 37.4548 125.363 38.5622 124.924 39.6451C124.471 40.7823 123.873 41.8557 123.144 42.8382C122.434 43.7982 121.553 44.6181 120.545 45.256C119.534 45.8968 118.348 46.2172 116.986 46.2172C116.207 46.231 115.434 46.067 114.728 45.7374C114.086 45.431 113.517 44.9921 113.057 44.4495C112.591 43.8928 112.239 43.2504 112.019 42.5584C111.78 41.8173 111.66 41.0429 111.664 40.264V23.3126C111.683 22.8741 111.637 22.4351 111.525 22.0107C111.438 21.7726 111.391 21.5217 111.386 21.2683C111.386 20.9557 111.551 20.702 111.882 20.5071C112.24 20.3041 112.646 20.2026 113.057 20.2133C114.108 20.2133 114.94 20.4873 115.553 21.0354C115.84 21.2762 116.07 21.5773 116.228 21.9174C116.386 22.2575 116.467 22.6281 116.465 23.0031L116.461 39.1231Z" fill="#FBF7EF"/>
<path d="M113.771 14.8572C112.974 14.8709 112.183 14.7149 111.45 14.3993C110.733 14.0963 110.081 13.6562 109.531 13.1036C108.981 12.5502 108.535 11.9022 108.213 11.1906C107.876 10.4484 107.698 9.64308 107.694 8.82748C107.674 7.9884 107.828 7.15436 108.148 6.37838C108.444 5.65506 108.873 4.99432 109.414 4.43097C110.524 3.30706 112.03 2.66588 113.608 2.64611C114.443 2.6282 115.274 2.77531 116.052 3.07904C116.779 3.35683 117.442 3.78061 117.999 4.32433C118.557 4.86806 118.997 5.52026 119.294 6.24084C119.618 7.01244 119.786 7.84045 119.79 8.67744C119.807 9.49054 119.659 10.2987 119.356 11.0531C119.065 11.7747 118.642 12.4353 118.108 13.0005C117.546 13.5876 116.872 14.0553 116.126 14.3756C115.38 14.696 114.577 14.8624 113.765 14.8651L113.771 14.8572Z" fill="#F6B747"/>
<path d="M121.053 56.8794C114.902 58.1579 107.283 59.4973 101.241 60.0537C95.1993 60.6101 90.6831 60.8805 84.6038 60.943C83.3233 60.9475 82.0446 60.8482 80.7802 60.6461C79.3419 60.4054 78.1859 59.0831 79.8052 58.4845C81.1515 57.9954 82.9548 57.9563 84.5336 57.85C94.9513 57.3233 105.054 55.6181 111.086 54.4116C114.142 53.6411 118.276 52.8487 122.587 52.0875C125.476 51.5811 127.579 51.8937 127.95 53.0331C128.321 54.1724 126.588 55.5556 123.802 56.2902C122.91 56.5168 121.977 56.6825 121.053 56.8794Z" fill="#FBF7EF"/>
</g>
<defs>
<clipPath id="clip0">
<rect width="128" height="70.6207" fill="white"/>
</clipPath>
</defs>
</svg>
